<?xml version="1.0" encoding="UTF-8" standalone="no"?>
<!DOCTYPE svg PUBLIC "-//W3C//DTD SVG 1.1//EN" "http://www.w3.org/Graphics/SVG/1.1/DTD/svg11.dtd">
<svg xmlns="http://www.w3.org/2000/svg" version="1.1" viewBox="0.00 0.00 400.00 400.00">
<g stroke-width="2.00" fill="none" stroke-linecap="butt">
<path stroke="#ffffff" vector-effect="non-scaling-stroke" d="
  M 113.71 58.13
  Q 114.52 48.44 105.28 48.56
  Q 99.66 48.63 92.05 48.56
  C 86.64 48.51 82.29 49.71 82.11 55.78
  Q 81.94 62.00 82.03 73.11
  C 82.10 81.19 81.08 87.00 75.71 92.03
  Q 72.34 95.19 49.15 115.43
  C 43.62 120.25 46.07 128.13 52.98 130.05
  C 59.22 131.77 62.86 128.44 67.28 124.53
  Q 79.55 113.69 160.73 42.35
  Q 166.25 37.50 169.42 36.71
  Q 174.54 35.44 179.12 39.47
  Q 218.30 73.92 275.68 124.30
  Q 280.40 128.45 281.77 129.17
  C 287.88 132.40 297.78 129.23 296.98 120.97
  Q 296.66 117.61 294.12 115.38
  Q 241.81 69.50 192.48 26.03
  C 183.40 18.03 169.97 16.44 158.97 20.80
  Q 154.80 22.45 146.36 29.89
  Q 126.34 47.50 114.20 58.37
  A 0.29 0.29 0.0 0 1 113.71 58.13"
/>
<path stroke="#ffffff" vector-effect="non-scaling-stroke" d="
  M 193.28 242.78
  Q 188.19 243.52 183.91 243.83
  C 164.82 245.20 148.51 239.29 134.50 226.77
  C 129.27 222.09 128.78 213.88 133.93 209.47
  C 136.41 207.35 140.23 206.63 143.51 206.30
  Q 155.01 205.15 156.53 204.89
  A 1.15 1.15 0.0 0 0 157.38 203.27
  C 150.87 189.31 143.82 173.54 143.29 157.99
  C 142.88 146.25 148.72 136.93 157.41 129.54
  C 165.64 122.53 174.75 121.16 183.55 127.88
  C 195.02 136.64 201.82 148.31 199.65 162.70
  C 197.80 174.87 193.29 186.79 188.09 197.88
  A 0.55 0.55 0.0 0 0 188.76 198.63
  C 193.80 196.95 199.13 195.22 203.56 193.54
  Q 214.85 189.27 221.37 187.66
  C 233.33 184.70 247.83 183.92 260.41 187.20
  A 0.58 0.57 -82.7 0 0 261.13 186.64
  L 261.13 131.88
  A 3.15 3.14 20.7 0 0 260.06 129.52
  L 172.56 52.62
  A 1.43 1.42 -44.8 0 0 170.69 52.62
  L 83.33 129.40
  A 3.85 3.84 -20.7 0 0 82.02 132.29
  L 82.02 223.13
  A 2.20 2.19 9.5 0 0 83.50 225.20
  C 106.19 232.97 124.41 239.91 146.03 244.96
  C 161.84 248.64 178.55 249.16 193.38 243.17
  A 0.20 0.20 0.0 0 0 193.28 242.78"
/>
<path stroke="#F9A03F" vector-effect="non-scaling-stroke" d="
  M 140.42 218.71
  Q 142.15 220.77 144.50 222.51
  Q 161.85 235.37 182.22 234.23
  C 190.91 233.74 200.54 230.50 209.21 232.21
  C 218.19 233.99 209.72 243.81 206.21 246.50
  C 184.86 262.84 155.01 258.20 131.23 251.48
  Q 113.46 246.46 88.10 237.22
  C 77.06 233.20 67.12 230.86 55.90 233.66
  Q 52.39 234.53 51.39 236.00
  C 45.75 244.23 64.14 252.61 69.16 255.06
  C 96.97 268.59 122.50 280.31 150.53 290.19
  C 163.83 294.88 180.05 297.73 194.16 296.05
  Q 204.69 294.80 213.61 292.14
  Q 238.12 284.85 251.66 281.17
  Q 271.99 275.64 291.99 275.66
  C 302.29 275.67 313.22 278.21 320.92 285.07
  Q 327.19 290.66 331.58 296.54
  Q 333.75 299.44 335.04 299.96
  C 337.31 300.86 339.39 299.24 340.46 297.17
  Q 349.97 278.80 358.67 262.76
  C 360.92 258.61 362.01 255.75 357.62 252.88
  Q 331.84 235.99 313.97 223.86
  C 307.71 219.60 301.71 214.80 296.30 211.28
  Q 284.69 203.73 268.78 199.02
  Q 244.15 191.72 221.35 197.83
  Q 219.29 198.39 203.43 204.09
  Q 180.49 212.34 157.25 214.73
  Q 143.98 216.10 141.37 216.35
  A 1.44 1.44 0.0 0 0 140.42 218.71"
/>
<path stroke="#ffffff" vector-effect="non-scaling-stroke" d="
  M 85.6188 327.0219
  A 10.43 10.43 0.0 0 0 75.2071 316.5737
  L 71.0071 316.5664
  A 10.43 10.43 0.0 0 0 60.5589 326.9781
  L 60.5212 348.5981
  A 10.43 10.43 0.0 0 0 70.9329 359.0463
  L 75.1329 359.0536
  A 10.43 10.43 0.0 0 0 85.5811 348.6419
  L 85.6188 327.0219"
/>
<path stroke="#ffffff" vector-effect="non-scaling-stroke" d="
  M 18.96 337.67
  L 19.11 348.62
  A 2.49 2.49 0.0 0 1 16.01 351.06
  L 15.73 350.99
  A 4.22 4.22 0.0 0 1 12.43 346.86
  Q 12.46 338.14 12.43 329.54
  C 12.42 326.39 13.46 324.97 16.51 324.77
  Q 21.40 324.45 25.00 325.71
  A 0.69 0.68 -80.4 0 0 25.91 325.06
  L 25.91 318.87
  A 1.36 1.34 6.8 0 0 24.87 317.56
  C 16.26 315.49 3.64 315.74 3.57 327.99
  Q 3.45 346.69 3.61 349.20
  C 4.23 359.09 13.95 359.41 22.01 358.25
  Q 24.62 357.88 26.41 356.83
  A 2.35 2.33 -15.2 0 0 27.58 354.81
  L 27.58 338.31
  A 2.04 2.04 0.0 0 0 25.54 336.27
  L 20.35 336.27
  A 1.39 1.38 -0.4 0 0 18.96 337.67"
/>
<path stroke="#ffffff" vector-effect="non-scaling-stroke" d="
  M 106.08 317.89
  L 106.08 347.91
  A 3.17 3.17 0.0 0 1 102.91 351.08
  L 102.27 351.08
  A 3.14 3.14 0.0 0 1 99.13 347.94
  L 99.13 318.53
  A 1.58 1.57 -0.0 0 0 97.55 316.96
  L 91.39 316.96
  A 1.27 1.27 0.0 0 0 90.12 318.24
  Q 90.16 321.18 90.10 342.26
  C 90.07 350.32 89.76 356.32 97.93 358.54
  C 105.42 360.58 114.49 358.21 114.89 348.98
  Q 115.05 345.32 114.90 318.27
  A 1.29 1.29 0.0 0 0 113.61 316.99
  L 106.97 316.99
  A 0.90 0.89 90.0 0 0 106.08 317.89"
/>
<path stroke="#ffffff" vector-effect="non-scaling-stroke" d="
  M 32.20 317.79
  L 32.20 357.07
  A 1.26 1.26 0.0 0 0 33.46 358.33
  L 39.78 358.33
  A 1.31 1.31 0.0 0 0 41.09 357.02
  Q 41.08 346.00 41.17 344.50
  Q 41.21 343.75 41.24 343.71
  A 0.85 0.85 0.0 0 1 42.69 343.97
  L 47.25 356.61
  A 2.70 2.70 0.0 0 0 49.79 358.40
  L 55.69 358.40
  A 1.37 1.36 78.8 0 0 56.95 356.51
  L 51.76 344.03
  A 1.49 1.48 -30.6 0 1 52.21 342.30
  Q 56.20 339.12 56.35 334.04
  C 56.56 327.13 56.97 318.52 48.45 317.36
  Q 45.54 316.96 32.96 317.03
  A 0.76 0.76 0.0 0 0 32.20 317.79"
/>
<path stroke="#ffffff" vector-effect="non-scaling-stroke" d="
  M 129.81 346.49
  C 139.85 346.42 144.39 344.97 144.39 334.01
  C 144.39 326.99 145.23 321.83 140.15 318.54
  Q 137.51 316.83 132.06 317.00
  Q 129.35 317.08 121.31 316.94
  A 1.17 1.16 -89.5 0 0 120.13 318.11
  L 120.13 356.77
  A 1.57 1.57 0.0 0 0 121.70 358.34
  L 127.54 358.34
  A 1.61 1.61 0.0 0 0 129.15 356.73
  L 129.15 347.15
  A 0.66 0.66 0.0 0 1 129.81 346.49"
/>
<path stroke="#ffffff" vector-effect="non-scaling-stroke" d="
  M 157.32 342.09
  A 0.88 0.88 0.0 0 1 158.20 341.21
  L 167.10 341.21
  A 0.88 0.88 0.0 0 0 167.98 340.33
  L 167.98 334.37
  A 0.88 0.88 0.0 0 0 167.10 333.49
  L 158.21 333.49
  A 0.88 0.88 0.0 0 1 157.33 332.61
  L 157.33 325.58
  A 0.88 0.88 0.0 0 1 158.21 324.70
  L 168.55 324.70
  A 0.88 0.88 0.0 0 0 169.43 323.82
  L 169.43 317.93
  A 0.88 0.88 0.0 0 0 168.55 317.05
  L 149.20 317.05
  A 0.88 0.88 0.0 0 0 148.32 317.93
  L 148.32 357.46
  A 0.88 0.88 0.0 0 0 149.20 358.34
  L 168.59 358.34
  A 0.88 0.88 0.0 0 0 169.47 357.46
  L 169.47 351.75
  A 0.88 0.88 0.0 0 0 168.59 350.87
  L 158.20 350.87
  A 0.88 0.88 0.0 0 1 157.32 349.99
  L 157.32 342.09"
/>
<path stroke="#ffffff" vector-effect="non-scaling-stroke" d="
  M 184.59 318.04
  L 184.73 357.50
  A 0.95 0.95 0.0 0 0 185.68 358.45
  L 200.48 358.40
  A 9.32 9.23 89.8 0 0 209.68 349.05
  L 209.60 326.33
  A 9.32 9.23 89.8 0 0 200.34 317.04
  L 185.54 317.09
  A 0.95 0.95 0.0 0 0 184.59 318.04"
/>
<path stroke="#ffffff" vector-effect="non-scaling-stroke" d="
  M 210.95 367.48
  L 218.52 367.48
  A 1.19 1.17 11.2 0 0 219.61 366.76
  Q 223.51 357.64 223.53 349.74
  Q 223.64 319.54 223.64 318.42
  A 1.43 1.43 0.0 0 0 222.21 316.98
  L 216.02 316.98
  A 1.54 1.53 -89.6 0 0 214.49 318.50
  Q 214.39 327.43 214.54 344.25
  C 214.62 352.30 212.87 358.87 210.37 366.69
  A 0.61 0.61 0.0 0 0 210.95 367.48"
/>
<path stroke="#ffffff" vector-effect="non-scaling-stroke" d="
  M 241.03 348.78
  Q 243.89 348.78 244.42 348.78
  A 0.70 0.70 0.0 0 1 245.10 349.34
  L 246.63 357.06
  A 1.56 1.55 -5.6 0 0 248.16 358.31
  L 254.40 358.31
  A 0.83 0.83 0.0 0 0 255.22 357.32
  L 247.42 318.02
  A 1.12 1.12 0.0 0 0 246.40 317.12
  Q 244.18 316.98 241.03 316.99
  Q 237.88 316.99 235.66 317.12
  A 1.12 1.12 0.0 0 0 234.63 318.02
  L 226.84 357.32
  A 0.83 0.83 0.0 0 0 227.66 358.31
  L 233.90 358.31
  A 1.56 1.55 5.6 0 0 235.43 357.06
  L 236.96 349.34
  A 0.70 0.70 0.0 0 1 237.64 348.78
  Q 238.16 348.78 241.03 348.78"
/>
<path stroke="#ffffff" vector-effect="non-scaling-stroke" d="
  M 283.66 334.65
  L 283.12 357.08
  A 1.21 1.21 0.0 0 0 284.33 358.32
  L 290.95 358.32
  A 1.08 1.08 0.0 0 0 292.03 357.24
  L 292.03 318.31
  A 1.39 1.39 0.0 0 0 290.64 316.92
  L 284.14 316.92
  A 2.04 2.04 0.0 0 0 282.22 318.28
  L 275.86 336.48
  A 0.59 0.59 0.0 0 1 274.75 336.48
  L 268.31 318.69
  A 2.57 2.56 80.1 0 0 265.90 316.99
  L 259.11 316.99
  A 0.68 0.68 0.0 0 0 258.43 317.67
  L 258.43 357.39
  A 0.94 0.94 0.0 0 0 259.37 358.33
  L 265.86 358.33
  A 1.18 1.18 0.0 0 0 267.04 357.17
  C 267.26 348.00 267.07 341.33 266.31 334.18
  A 0.29 0.29 0.0 0 1 266.87 334.05
  L 271.45 346.72
  A 1.66 1.65 79.8 0 0 273.00 347.81
  L 277.80 347.81
  A 1.38 1.37 9.5 0 0 279.10 346.89
  L 283.40 334.60
  A 0.13 0.13 0.0 0 1 283.66 334.65"
/>
<path stroke="#ffffff" vector-effect="non-scaling-stroke" d="
  M 306.3757 317.9822
  A 1.02 1.02 0.0 0 0 305.3539 316.9640
  L 298.3939 316.9761
  A 1.02 1.02 0.0 0 0 297.3757 317.9979
  L 297.4443 357.3378
  A 1.02 1.02 0.0 0 0 298.4661 358.3560
  L 305.4261 358.3439
  A 1.02 1.02 0.0 0 0 306.4443 357.3221
  L 306.3757 317.9822"
/>
<path stroke="#ffffff" vector-effect="non-scaling-stroke" d="
  M 323.67 358.35
  Q 327.28 358.36 327.79 358.22
  A 0.58 0.58 0.0 0 0 328.22 357.66
  L 328.22 345.84
  A 1.58 1.52 -36.8 0 1 328.30 345.35
  L 337.71 318.47
  A 1.10 1.09 -80.3 0 0 336.68 317.01
  L 330.55 317.01
  A 2.12 2.11 -82.3 0 0 328.51 318.57
  L 324.01 334.78
  A 0.23 0.21 -86.2 0 1 323.86 334.93
  Q 323.83 334.93 323.74 334.93
  Q 323.64 334.93 323.62 334.93
  A 0.23 0.21 86.5 0 1 323.47 334.78
  L 319.05 318.54
  A 2.12 2.11 82.6 0 0 317.02 316.97
  L 310.89 316.94
  A 1.10 1.09 80.6 0 0 309.85 318.39
  L 319.12 345.33
  A 1.58 1.52 37.1 0 1 319.20 345.82
  L 319.13 357.64
  A 0.58 0.58 0.0 0 0 319.56 358.20
  Q 320.07 358.34 323.67 358.35"
/>
<path stroke="#ffffff" vector-effect="non-scaling-stroke" d="
  M 352.79 348.78
  Q 355.65 348.78 356.18 348.79
  A 0.70 0.70 0.0 0 1 356.86 349.35
  L 358.38 357.07
  A 1.56 1.55 -5.5 0 0 359.90 358.32
  L 366.14 358.33
  A 0.83 0.83 0.0 0 0 366.96 357.34
  L 359.24 318.04
  A 1.12 1.12 0.0 0 0 358.22 317.14
  Q 356.00 317.00 352.85 316.99
  Q 349.70 316.99 347.48 317.12
  A 1.12 1.12 0.0 0 0 346.45 318.02
  L 338.59 357.29
  A 0.83 0.83 0.0 0 0 339.40 358.29
  L 345.64 358.30
  A 1.56 1.55 5.7 0 0 347.18 357.05
  L 348.72 349.33
  A 0.70 0.70 0.0 0 1 349.40 348.77
  Q 349.93 348.77 352.79 348.78"
/>
<path stroke="#ffffff" vector-effect="non-scaling-stroke" d="
  M 378.16 317.03
  L 371.56 317.03
  A 1.17 1.17 0.0 0 0 370.39 318.20
  L 370.39 357.17
  A 1.16 1.15 -90.0 0 0 371.54 358.33
  L 377.94 358.33
  A 1.34 1.33 0.0 0 0 379.28 357.00
  L 379.28 342.36
  A 0.52 0.51 -90.0 0 1 379.79 341.84
  L 386.79 341.84
  A 0.73 0.73 0.0 0 1 387.52 342.57
  L 387.52 357.31
  A 1.02 1.02 0.0 0 0 388.54 358.33
  L 395.32 358.33
  A 1.13 1.13 0.0 0 0 396.45 357.20
  L 396.45 318.75
  A 1.75 1.74 -0.0 0 0 394.70 317.01
  L 390.32 317.01
  A 2.74 2.74 0.0 0 0 387.58 319.75
  L 387.58 333.11
  A 0.94 0.94 0.0 0 1 386.64 334.05
  L 380.13 334.05
  A 0.83 0.82 -0.0 0 1 379.30 333.23
  L 379.30 318.17
  A 1.14 1.14 0.0 0 0 378.16 317.03"
/>
<path stroke="#ffffff" vector-effect="non-scaling-stroke" d="
  M 73.3034 367.4765
  A 0.83 0.83 0.0 0 0 72.4705 366.6494
  L 72.0905 366.6507
  A 0.83 0.83 0.0 0 0 71.2634 367.4836
  L 71.3166 382.7435
  A 0.83 0.83 0.0 0 0 72.1495 383.5706
  L 72.5295 383.5693
  A 0.83 0.83 0.0 0 0 73.3566 382.7364
  L 73.3034 367.4765"
/>
<path stroke="#dddddd" vector-effect="non-scaling-stroke" d="
  M 164.5098 366.6414
  A 1.52 0.70 -43.1 0 0 162.9217 367.1689
  A 1.52 0.70 -43.1 0 0 162.2902 368.7186
  A 1.52 0.70 -43.1 0 0 163.8783 368.1911
  A 1.52 0.70 -43.1 0 0 164.5098 366.6414"
/>
<path stroke="#dddddd" vector-effect="non-scaling-stroke" d="
  M 168.8458 367.3743
  A 1.38 1.17 -168.9 0 0 169.9747 368.7881
  A 1.38 1.17 -168.9 0 0 171.5542 367.9057
  A 1.38 1.17 -168.9 0 0 170.4253 366.4919
  A 1.38 1.17 -168.9 0 0 168.8458 367.3743"
/>
<path stroke="#ffffff" vector-effect="non-scaling-stroke" d="
  M 294.41 367.72
  A 1.19 1.19 0.0 0 0 293.22 366.53
  A 1.19 1.19 0.0 0 0 292.03 367.72
  A 1.19 1.19 0.0 0 0 293.22 368.91
  A 1.19 1.19 0.0 0 0 294.41 367.72"
/>
<path stroke="#dddddd" vector-effect="non-scaling-stroke" d="
  M 122.2051 366.7180
  A 2.67 0.90 -72.9 0 0 120.5598 369.0054
  A 2.67 0.90 -72.9 0 0 120.6349 371.8220
  A 2.67 0.90 -72.9 0 0 122.2802 369.5346
  A 2.67 0.90 -72.9 0 0 122.2051 366.7180"
/>
<path stroke="#dddddd" vector-effect="non-scaling-stroke" d="
  M 279.9240 367.3040
  A 0.98 0.73 -39.7 0 0 278.7037 367.3683
  A 0.98 0.73 -39.7 0 0 278.4160 368.5560
  A 0.98 0.73 -39.7 0 0 279.6363 368.4917
  A 0.98 0.73 -39.7 0 0 279.9240 367.3040"
/>
<path stroke="#ffffff" vector-effect="non-scaling-stroke" d="
  M 63.89 378.25
  Q 70.15 379.02 68.48 369.63
  A 2.32 2.31 -5.0 0 0 66.20 367.73
  L 61.94 367.73
  A 1.21 1.21 0.0 0 0 60.73 368.94
  L 60.73 382.50
  A 0.96 0.96 0.0 0 0 61.69 383.46
  L 62.08 383.46
  A 0.87 0.87 0.0 0 0 62.95 382.59
  L 62.95 379.08
  A 0.84 0.83 -86.4 0 1 63.89 378.25"
/>
<path stroke="#dddddd" vector-effect="non-scaling-stroke" d="
  M 217.73 382.48
  L 217.74 371.05
  A 0.90 0.90 0.0 0 0 216.84 370.15
  L 216.54 370.15
  A 0.82 0.81 -89.9 0 0 215.72 370.97
  L 215.71 380.29
  A 1.46 1.46 0.0 0 1 214.25 381.75
  L 213.62 381.75
  A 1.50 1.49 0.1 0 1 212.11 380.25
  L 212.12 371.02
  A 0.84 0.84 0.0 0 0 211.28 370.17
  L 210.92 370.17
  A 0.82 0.82 0.0 0 0 210.10 370.99
  L 210.09 381.60
  A 1.65 1.64 -89.9 0 0 211.73 383.26
  L 216.94 383.27
  A 0.79 0.78 -89.9 0 0 217.73 382.48"
/>
<path stroke="#dddddd" vector-effect="non-scaling-stroke" d="
  M 277.50 377.78
  L 281.48 377.78
  A 1.12 1.12 0.0 0 0 282.60 376.66
  L 282.60 372.51
  A 2.04 2.04 0.0 0 0 281.01 370.52
  Q 274.93 369.13 274.87 373.74
  Q 274.85 375.65 274.93 380.42
  A 3.08 3.07 -78.1 0 0 276.69 383.14
  Q 278.27 383.88 281.60 383.39
  A 0.99 0.99 0.0 0 0 282.44 382.41
  L 282.44 382.11
  A 0.63 0.63 0.0 0 0 281.63 381.51
  C 278.68 382.40 276.75 382.00 276.82 378.46
  A 0.69 0.68 -89.6 0 1 277.50 377.78"
/>
<path stroke="#dddddd" vector-effect="non-scaling-stroke" d="
  M 83.82 382.47
  L 83.84 371.13
  A 0.90 0.90 0.0 0 0 82.95 370.23
  L 82.65 370.23
  A 0.82 0.81 -89.9 0 0 81.84 371.05
  L 81.83 380.30
  A 1.45 1.45 0.0 0 1 80.37 381.75
  L 79.74 381.75
  A 1.49 1.48 0.1 0 1 78.25 380.26
  L 78.26 371.09
  A 0.84 0.84 0.0 0 0 77.43 370.25
  L 77.07 370.25
  A 0.82 0.82 0.0 0 0 76.25 371.07
  L 76.24 381.60
  A 1.64 1.63 -89.9 0 0 77.87 383.25
  L 83.05 383.26
  A 0.79 0.78 -89.9 0 0 83.82 382.47"
/>
<path stroke="#dddddd" vector-effect="non-scaling-stroke" d="
  M 117.92 382.48
  L 117.81 371.12
  A 0.90 0.90 0.0 0 0 116.91 370.24
  L 116.61 370.24
  A 0.82 0.81 89.5 0 0 115.81 371.06
  L 115.89 380.32
  A 1.46 1.46 0.0 0 1 114.45 381.79
  L 113.82 381.80
  A 1.50 1.49 -0.5 0 1 112.32 380.33
  L 112.23 371.15
  A 0.84 0.84 0.0 0 0 111.39 370.32
  L 111.03 370.32
  A 0.82 0.82 0.0 0 0 110.22 371.14
  L 110.31 381.69
  A 1.64 1.63 89.5 0 0 111.96 383.32
  L 117.15 383.27
  A 0.79 0.78 89.5 0 0 117.92 382.48"
/>
<path stroke="#dddddd" vector-effect="non-scaling-stroke" d="
  M 132.58 382.49
  L 132.57 371.06
  A 0.90 0.90 0.0 0 0 131.66 370.16
  L 131.36 370.16
  A 0.82 0.81 89.9 0 0 130.55 370.99
  L 130.56 380.30
  A 1.46 1.46 0.0 0 1 129.10 381.77
  L 128.47 381.77
  A 1.50 1.49 -0.1 0 1 126.96 380.28
  L 126.95 371.04
  A 0.84 0.84 0.0 0 0 126.11 370.20
  L 125.75 370.20
  A 0.82 0.82 0.0 0 0 124.93 371.02
  L 124.94 381.63
  A 1.65 1.64 89.9 0 0 126.58 383.28
  L 131.80 383.28
  A 0.79 0.78 89.9 0 0 132.58 382.49"
/>
<path stroke="#dddddd" vector-effect="non-scaling-stroke" d="
  M 161.50 377.79
  L 165.46 377.78
  A 1.11 1.11 0.0 0 0 166.57 376.67
  L 166.56 372.55
  A 2.03 2.03 0.0 0 0 164.98 370.57
  Q 158.94 369.20 158.88 373.78
  Q 158.87 375.68 158.95 380.42
  A 3.06 3.05 -78.2 0 0 160.71 383.11
  Q 162.28 383.85 165.58 383.35
  A 0.98 0.98 0.0 0 0 166.42 382.38
  L 166.42 382.08
  A 0.63 0.62 -8.4 0 0 165.61 381.49
  C 162.68 382.38 160.76 381.98 160.83 378.47
  A 0.69 0.68 -89.7 0 1 161.50 377.79"
/>
<path stroke="#dddddd" vector-effect="non-scaling-stroke" d="
  M 169.25 371.20
  Q 169.39 381.17 169.30 383.27
  C 169.23 384.85 167.85 384.78 167.21 385.82
  A 1.04 0.79 -0.5 0 0 168.61 386.86
  C 170.63 386.12 171.26 384.73 171.22 382.53
  Q 171.14 377.71 171.29 371.04
  A 0.74 0.73 0.8 0 0 170.55 370.29
  L 170.15 370.29
  A 0.90 0.90 0.0 0 0 169.25 371.20"
/>
<path stroke="#dddddd" vector-effect="non-scaling-stroke" d="
  M 181.6381 373.2063
  A 2.94 2.94 0.0 0 0 178.6725 370.2920
  L 176.7926 370.3085
  A 2.94 2.94 0.0 0 0 173.8784 373.2740
  L 173.9419 380.5537
  A 2.94 2.94 0.0 0 0 176.9075 383.4680
  L 178.7874 383.4515
  A 2.94 2.94 0.0 0 0 181.7016 380.4860
  L 181.6381 373.2063"
/>
<path stroke="#dddddd" vector-effect="non-scaling-stroke" d="
  M 192.13 382.54
  L 192.13 371.15
  A 0.90 0.90 0.0 0 0 191.23 370.25
  L 190.93 370.25
  A 0.82 0.81 -90.0 0 0 190.12 371.07
  L 190.12 380.36
  A 1.46 1.46 0.0 0 1 188.66 381.82
  L 188.03 381.82
  A 1.50 1.49 0.0 0 1 186.53 380.33
  L 186.53 371.12
  A 0.84 0.84 0.0 0 0 185.69 370.28
  L 185.33 370.28
  A 0.82 0.82 0.0 0 0 184.51 371.10
  L 184.51 381.68
  A 1.65 1.64 90.0 0 0 186.15 383.33
  L 191.35 383.33
  A 0.79 0.78 -90.0 0 0 192.13 382.54"
/>
<path stroke="#dddddd" vector-effect="non-scaling-stroke" d="
  M 195.09 370.72
  L 195.16 382.64
  A 0.89 0.89 0.0 0 0 196.05 383.52
  L 196.37 383.52
  A 0.87 0.87 0.0 0 0 197.23 382.65
  L 197.17 373.41
  A 0.86 0.85 -6.0 0 1 197.86 372.56
  L 199.53 372.22
  A 0.86 0.85 -6.0 0 0 200.22 371.38
  L 200.21 370.92
  A 0.60 0.60 0.0 0 0 199.35 370.38
  Q 197.60 371.20 195.75 370.30
  A 0.46 0.46 0.0 0 0 195.09 370.72"
/>
<path stroke="#dddddd" vector-effect="non-scaling-stroke" d="
  M 220.75 371.33
  L 220.75 382.70
  A 0.90 0.90 0.0 0 0 221.65 383.60
  L 221.95 383.60
  A 0.82 0.81 -90.0 0 0 222.76 382.78
  L 222.76 373.51
  A 1.46 1.46 0.0 0 1 224.22 372.05
  L 224.84 372.05
  A 1.50 1.49 0.0 0 1 226.34 373.54
  L 226.34 382.73
  A 0.84 0.84 0.0 0 0 227.18 383.57
  L 227.54 383.57
  A 0.82 0.82 0.0 0 0 228.36 382.75
  L 228.36 372.19
  A 1.65 1.64 -90.0 0 0 226.72 370.55
  L 221.53 370.54
  A 0.79 0.78 -90.0 0 0 220.75 371.33"
/>
<path stroke="#ffffff" vector-effect="non-scaling-stroke" d="
  M 233.61 377.77
  L 237.58 377.77
  A 1.12 1.12 0.0 0 0 238.70 376.66
  L 238.70 372.52
  A 2.04 2.04 0.0 0 0 237.11 370.53
  Q 231.04 369.14 230.98 373.74
  Q 230.96 375.65 231.04 380.41
  A 3.08 3.06 -78.1 0 0 232.80 383.12
  Q 234.38 383.86 237.70 383.37
  A 0.99 0.99 0.0 0 0 238.54 382.39
  L 238.54 382.09
  A 0.63 0.63 0.0 0 0 237.73 381.50
  C 234.79 382.38 232.86 381.98 232.93 378.45
  A 0.69 0.68 -89.6 0 1 233.61 377.77"
/>
<path stroke="#ffffff" vector-effect="non-scaling-stroke" d="
  M 248.08 377.77
  L 252.05 377.79
  A 1.12 1.12 0.0 0 0 253.18 376.68
  L 253.21 372.54
  A 2.04 2.04 0.0 0 0 251.63 370.54
  Q 245.57 369.11 245.48 373.71
  Q 245.44 375.62 245.49 380.38
  A 3.08 3.06 -77.7 0 0 247.23 383.11
  Q 248.80 383.86 252.13 383.40
  A 0.99 0.99 0.0 0 0 252.98 382.42
  L 252.98 382.12
  A 0.63 0.63 0.0 0 0 252.18 381.52
  C 249.22 382.39 247.30 381.98 247.39 378.44
  A 0.69 0.68 -89.2 0 1 248.08 377.77"
/>
<path stroke="#ffffff" vector-effect="non-scaling-stroke" d="
  M 257.35 376.89
  Q 257.35 377.02 257.31 377.13
  Q 256.25 379.82 255.04 382.65
  A 0.70 0.70 0.0 0 0 255.66 383.62
  L 255.80 383.63
  A 1.43 1.42 10.9 0 0 257.18 382.70
  Q 258.44 379.33 258.70 379.37
  Q 258.96 379.33 260.22 382.70
  A 1.43 1.42 -11.1 0 0 261.61 383.62
  L 261.75 383.61
  A 0.70 0.70 0.0 0 0 262.37 382.64
  Q 261.15 379.81 260.08 377.12
  Q 260.03 377.01 260.03 376.89
  Q 260.03 376.77 260.08 376.66
  Q 261.14 373.97 262.35 371.14
  A 0.70 0.70 0.0 0 0 261.73 370.17
  L 261.59 370.16
  A 1.43 1.42 10.9 0 0 260.20 371.08
  Q 258.95 374.46 258.69 374.42
  Q 258.43 374.46 257.16 371.09
  A 1.43 1.42 -11.1 0 0 255.78 370.17
  L 255.64 370.18
  A 0.70 0.70 0.0 0 0 255.02 371.15
  Q 256.24 373.97 257.31 376.66
  Q 257.35 376.77 257.35 376.89"
/>
<path stroke="#ffffff" vector-effect="non-scaling-stroke" d="
  M 267.60 383.41
  Q 272.08 384.35 272.34 380.14
  Q 272.61 375.94 272.16 372.39
  A 2.21 2.20 -3.5 0 0 269.97 370.46
  L 265.70 370.46
  A 1.09 1.09 0.0 0 0 264.61 371.55
  L 264.61 386.11
  A 0.92 0.92 0.0 0 0 265.53 387.03
  L 265.82 387.03
  A 0.92 0.91 86.1 0 0 266.72 385.99
  Q 266.54 384.74 266.69 384.00
  A 0.77 0.77 0.0 0 1 267.60 383.41"
/>
<path stroke="#ffffff" vector-effect="non-scaling-stroke" d="
  M 285.15 370.70
  L 285.15 382.80
  A 0.90 0.90 0.0 0 0 286.05 383.70
  L 286.37 383.70
  A 0.88 0.88 0.0 0 0 287.25 382.82
  L 287.25 373.44
  A 0.87 0.87 0.0 0 1 287.95 372.59
  L 289.65 372.25
  A 0.87 0.87 0.0 0 0 290.35 371.40
  L 290.35 370.93
  A 0.61 0.61 0.0 0 0 289.48 370.38
  Q 287.70 371.20 285.82 370.28
  A 0.47 0.47 0.0 0 0 285.15 370.70"
/>
<path stroke="#ffffff" vector-effect="non-scaling-stroke" d="
  M 294.2099 371.2163
  A 0.90 0.90 0.0 0 0 293.3068 370.3194
  L 292.9468 370.3207
  A 0.90 0.90 0.0 0 0 292.0499 371.2238
  L 292.0901 382.7237
  A 0.90 0.90 0.0 0 0 292.9932 383.6206
  L 293.3532 383.6193
  A 0.90 0.90 0.0 0 0 294.2501 382.7162
  L 294.2099 371.2163"
/>
<path stroke="#ffffff" vector-effect="non-scaling-stroke" d="
  M 299.51 377.75
  L 303.48 377.79
  A 1.12 1.12 0.0 0 0 304.61 376.68
  L 304.65 372.55
  A 2.03 2.03 0.0 0 0 303.09 370.54
  Q 297.04 369.09 296.93 373.69
  Q 296.89 375.59 296.92 380.35
  A 3.07 3.06 -77.4 0 0 298.64 383.08
  Q 300.21 383.84 303.54 383.38
  A 0.99 0.99 0.0 0 0 304.38 382.41
  L 304.39 382.12
  A 0.63 0.63 0.0 0 0 303.59 381.51
  C 300.64 382.36 298.72 381.95 298.82 378.42
  A 0.69 0.68 -89.0 0 1 299.51 377.75"
/>
<path stroke="#ffffff" vector-effect="non-scaling-stroke" d="
  M 307.24 371.26
  L 307.24 382.71
  A 0.90 0.90 0.0 0 0 308.15 383.61
  L 308.45 383.61
  A 0.82 0.81 90.0 0 0 309.26 382.79
  L 309.26 373.45
  A 1.47 1.47 0.0 0 1 310.73 371.98
  L 311.36 371.98
  A 1.51 1.50 -0.0 0 1 312.87 373.48
  L 312.87 382.73
  A 0.84 0.84 0.0 0 0 313.72 383.58
  L 314.08 383.58
  A 0.82 0.82 0.0 0 0 314.90 382.75
  L 314.90 372.12
  A 1.66 1.65 90.0 0 0 313.25 370.46
  L 308.02 370.46
  A 0.79 0.78 90.0 0 0 307.24 371.26"
/>
<path stroke="#ffffff" vector-effect="non-scaling-stroke" d="
  M 317.41 376.92
  Q 317.42 380.01 317.52 380.90
  A 2.81 2.81 0.0 0 0 319.60 383.32
  Q 320.91 383.67 323.47 383.43
  A 0.97 0.97 0.0 0 0 324.35 382.46
  L 324.35 382.14
  A 0.75 0.75 0.0 0 0 323.39 381.42
  Q 321.48 381.98 320.42 381.42
  A 1.51 1.49 6.1 0 1 319.66 380.50
  Q 319.65 380.46 319.64 376.91
  Q 319.63 373.37 319.64 373.33
  A 1.51 1.49 -6.5 0 1 320.39 372.40
  Q 321.44 371.83 323.36 372.38
  A 0.75 0.75 0.0 0 0 324.31 371.65
  L 324.31 371.33
  A 0.97 0.97 0.0 0 0 323.42 370.37
  Q 320.86 370.15 319.55 370.51
  A 2.81 2.81 0.0 0 0 317.49 372.95
  Q 317.40 373.83 317.41 376.92"
/>
<path stroke="#ffffff" vector-effect="non-scaling-stroke" d="
  M 328.88 377.77
  L 332.88 377.75
  A 1.13 1.13 0.0 0 0 334.00 376.62
  L 333.98 372.45
  A 2.05 2.05 0.0 0 0 332.38 370.46
  Q 326.26 369.08 326.22 373.72
  Q 326.21 375.64 326.30 380.43
  A 3.10 3.08 -78.3 0 0 328.08 383.16
  Q 329.67 383.89 333.02 383.39
  A 1.00 1.00 0.0 0 0 333.86 382.40
  L 333.86 382.10
  A 0.63 0.63 0.0 0 0 333.04 381.50
  C 330.08 382.41 328.14 382.01 328.19 378.45
  A 0.69 0.68 -89.8 0 1 328.88 377.77"
/>
<path stroke="#dddddd" vector-effect="non-scaling-stroke" d="
  M 86.07 382.42
  A 0.92 0.91 -84.2 0 0 86.80 383.32
  Q 88.49 383.68 90.74 383.30
  C 93.47 382.85 93.98 379.92 92.77 377.89
  A 1.61 1.61 0.0 0 0 92.16 377.28
  L 88.80 375.34
  A 1.35 1.34 -79.9 0 1 88.13 374.37
  Q 87.66 371.45 92.22 372.16
  A 0.66 0.66 0.0 0 0 92.98 371.59
  L 93.00 371.46
  A 0.84 0.84 0.0 0 0 92.30 370.53
  Q 90.00 370.18 87.56 370.81
  A 1.36 1.34 -83.3 0 0 86.69 371.51
  Q 85.46 373.88 86.89 376.26
  A 1.06 1.06 0.0 0 0 87.27 376.64
  L 90.69 378.61
  A 1.65 1.65 0.0 0 1 90.41 381.59
  Q 89.01 382.07 86.72 381.52
  A 0.53 0.52 -83.1 0 0 86.07 382.03
  L 86.07 382.42"
/>
<path stroke="#dddddd" vector-effect="non-scaling-stroke" d="
  M 104.40 383.22
  A 0.75 0.75 0.0 0 1 105.29 383.80
  Q 105.43 384.53 105.25 385.76
  A 0.90 0.90 0.0 0 0 106.13 386.79
  L 106.42 386.79
  A 0.91 0.91 0.0 0 0 107.33 385.89
  L 107.38 371.55
  A 1.07 1.07 0.0 0 0 106.31 370.47
  L 102.11 370.46
  A 2.17 2.17 0.0 0 0 99.94 372.35
  Q 99.49 375.85 99.74 379.98
  Q 99.98 384.13 104.40 383.22"
/>
<path stroke="#dddddd" vector-effect="non-scaling-stroke" d="
  M 135.58 371.30
  L 135.57 382.71
  A 0.90 0.90 0.0 0 0 136.47 383.62
  L 136.77 383.62
  A 0.82 0.81 -89.9 0 0 137.58 382.80
  L 137.59 373.49
  A 1.46 1.46 0.0 0 1 139.06 372.03
  L 139.69 372.03
  A 1.50 1.49 0.1 0 1 141.19 373.52
  L 141.18 382.75
  A 0.84 0.84 0.0 0 0 142.02 383.59
  L 142.38 383.59
  A 0.82 0.82 0.0 0 0 143.20 382.77
  L 143.21 372.17
  A 1.65 1.64 -89.9 0 0 141.57 370.52
  L 136.36 370.51
  A 0.79 0.78 -89.9 0 0 135.58 371.30"
/>
<path stroke="#dddddd" vector-effect="non-scaling-stroke" d="
  M 149.57 382.37
  A 0.92 0.91 -83.8 0 0 150.29 383.27
  Q 151.97 383.64 154.22 383.28
  C 156.94 382.85 157.47 379.93 156.28 377.90
  A 1.60 1.60 0.0 0 0 155.68 377.29
  L 152.34 375.33
  A 1.35 1.34 -79.5 0 1 151.68 374.36
  Q 151.23 371.45 155.77 372.19
  A 0.66 0.66 0.0 0 0 156.53 371.62
  L 156.55 371.50
  A 0.84 0.83 8.6 0 0 155.86 370.56
  Q 153.57 370.20 151.13 370.81
  A 1.36 1.34 -82.9 0 0 150.26 371.50
  Q 149.02 373.86 150.43 376.24
  A 1.05 1.05 0.0 0 0 150.81 376.62
  L 154.20 378.61
  A 1.64 1.64 0.0 0 1 153.90 381.57
  Q 152.50 382.04 150.22 381.48
  A 0.52 0.52 0.0 0 0 149.57 381.98
  L 149.57 382.37"
/>
<path stroke="#ffffff" vector-effect="non-scaling-stroke" d="
  M 338.51 382.49
  A 1.34 1.34 0.0 0 0 337.17 381.15
  A 1.34 1.34 0.0 0 0 335.83 382.49
  A 1.34 1.34 0.0 0 0 337.17 383.83
  A 1.34 1.34 0.0 0 0 338.51 382.49"
/>
<path stroke="#dddddd" vector-effect="non-scaling-stroke" d="
  M 203.57 381.53
  L 201.97 381.03
  A 0.17 0.17 0.0 0 0 201.75 381.14
  L 201.70 381.33
  A 4.60 0.89 -72.7 0 0 201.18 385.98
  L 201.41 386.05
  A 4.60 0.89 -72.7 0 0 203.62 381.93
  L 203.68 381.74
  A 0.17 0.17 0.0 0 0 203.57 381.53"
/>
<path stroke="#ffffff" vector-effect="non-scaling-stroke" d="
  M 187.81 100.88
  A 16.24 16.24 0.0 0 0 171.57 84.64
  A 16.24 16.24 0.0 0 0 155.33 100.88
  A 16.24 16.24 0.0 0 0 171.57 117.12
  A 16.24 16.24 0.0 0 0 187.81 100.88"
/>
<path stroke="#ffffff" vector-effect="non-scaling-stroke" d="
  M 76.7878 327.5665
  A 3.17 3.17 0.0 0 0 73.6234 324.3909
  L 72.5634 324.3891
  A 3.17 3.17 0.0 0 0 69.3878 327.5536
  L 69.3522 347.9735
  A 3.17 3.17 0.0 0 0 72.5166 351.1491
  L 73.5766 351.1509
  A 3.17 3.17 0.0 0 0 76.7522 347.9864
  L 76.7878 327.5665"
/>
<path stroke="#ffffff" vector-effect="non-scaling-stroke" d="
  M 40.91 325.76
  L 40.99 334.98
  A 1.44 1.44 0.0 0 0 42.44 336.41
  L 44.58 336.39
  A 3.24 2.86 89.5 0 0 47.41 333.12
  L 47.37 327.50
  A 3.24 2.86 89.5 0 0 44.48 324.29
  L 42.34 324.31
  A 1.44 1.44 0.0 0 0 40.91 325.76"
/>
<path stroke="#ffffff" vector-effect="non-scaling-stroke" d="
  M 129.09 325.47
  L 129.09 337.69
  A 0.94 0.94 0.0 0 0 130.03 338.63
  L 132.58 338.63
  A 3.01 2.83 -90.0 0 0 135.41 335.62
  L 135.41 327.54
  A 3.01 2.83 90.0 0 0 132.58 324.53
  L 130.03 324.53
  A 0.94 0.94 0.0 0 0 129.09 325.47"
/>
<path stroke="#ffffff" vector-effect="non-scaling-stroke" d="
  M 193.59 325.06
  L 193.59 350.26
  A 0.81 0.81 0.0 0 0 194.40 351.07
  L 198.08 351.07
  A 2.69 2.53 90.0 0 0 200.61 348.38
  L 200.61 326.94
  A 2.69 2.53 -90.0 0 0 198.08 324.25
  L 194.40 324.25
  A 0.81 0.81 0.0 0 0 193.59 325.06"
/>
<path stroke="#ffffff" vector-effect="non-scaling-stroke" d="
  M 238.21 340.81
  A 0.38 0.38 0.0 0 0 238.58 341.26
  L 243.42 341.24
  A 0.38 0.38 0.0 0 0 243.79 340.79
  L 241.32 327.16
  A 0.38 0.38 0.0 0 0 240.58 327.16
  L 238.21 340.81"
/>
<path stroke="#ffffff" vector-effect="non-scaling-stroke" d="
  M 349.94 340.86
  A 0.33 0.33 0.0 0 0 350.26 341.25
  L 355.22 341.24
  A 0.33 0.33 0.0 0 0 355.54 340.85
  L 353.04 326.97
  A 0.33 0.33 0.0 0 0 352.39 326.98
  L 349.94 340.86"
/>
<path stroke="#ffffff" vector-effect="non-scaling-stroke" d="
  M 62.91 370.25
  L 62.93 375.69
  A 0.78 0.78 0.0 0 0 63.72 376.47
  L 64.84 376.46
  A 1.90 1.81 -0.3 0 0 66.73 374.64
  L 66.71 371.26
  A 1.90 1.81 -0.3 0 0 64.80 369.46
  L 63.68 369.47
  A 0.78 0.78 0.0 0 0 62.91 370.25"
/>
<path stroke="#dddddd" vector-effect="non-scaling-stroke" d="
  M 277.65 376.22
  L 279.87 376.18
  A 0.79 0.79 0.0 0 0 280.64 375.38
  L 280.62 373.84
  A 1.95 1.67 89.0 0 0 278.91 371.92
  L 278.45 371.92
  A 1.95 1.67 89.0 0 0 276.82 373.90
  L 276.84 375.44
  A 0.79 0.79 0.0 0 0 277.65 376.22"
/>
<path stroke="#dddddd" vector-effect="non-scaling-stroke" d="
  M 161.38 376.22
  L 164.30 376.16
  A 0.56 0.56 0.0 0 0 164.84 375.59
  L 164.80 373.73
  A 1.98 1.87 88.8 0 0 162.89 371.79
  L 162.59 371.79
  A 1.98 1.87 88.8 0 0 160.77 373.81
  L 160.80 375.67
  A 0.56 0.56 0.0 0 0 161.38 376.22"
/>
<path stroke="#dddddd" vector-effect="non-scaling-stroke" d="
  M 179.7576 373.5602
  A 1.73 1.73 0.0 0 0 178.0366 371.8212
  L 177.6167 371.8190
  A 1.73 1.73 0.0 0 0 175.8776 373.5399
  L 175.8424 380.2598
  A 1.73 1.73 0.0 0 0 177.5634 381.9988
  L 177.9833 382.0010
  A 1.73 1.73 0.0 0 0 179.7224 380.2801
  L 179.7576 373.5602"
/>
<path stroke="#ffffff" vector-effect="non-scaling-stroke" d="
  M 233.52 376.11
  L 236.38 376.07
  A 0.54 0.54 0.0 0 0 236.91 375.52
  L 236.89 373.82
  A 2.02 1.76 89.1 0 0 235.10 371.83
  L 234.68 371.83
  A 2.02 1.76 89.1 0 0 232.95 373.88
  L 232.98 375.58
  A 0.54 0.54 0.0 0 0 233.52 376.11"
/>
<path stroke="#ffffff" vector-effect="non-scaling-stroke" d="
  M 248.18 376.15
  L 250.62 376.09
  A 0.70 0.70 0.0 0 0 251.30 375.37
  L 251.26 373.62
  A 1.85 1.68 88.6 0 0 249.54 371.81
  L 249.06 371.83
  A 1.85 1.68 88.6 0 0 247.42 373.72
  L 247.47 375.47
  A 0.70 0.70 0.0 0 0 248.18 376.15"
/>
<path stroke="#ffffff" vector-effect="non-scaling-stroke" d="
  M 270.3499 373.4159
  A 1.27 1.27 0.0 0 0 269.0910 372.1349
  L 268.0110 372.1255
  A 1.27 1.27 0.0 0 0 266.7300 373.3843
  L 266.6701 380.2441
  A 1.27 1.27 0.0 0 0 267.9290 381.5251
  L 269.0090 381.5345
  A 1.27 1.27 0.0 0 0 270.2900 380.2757
  L 270.3499 373.4159"
/>
<path stroke="#ffffff" vector-effect="non-scaling-stroke" d="
  M 299.64 376.14
  L 302.10 376.08
  A 0.70 0.70 0.0 0 0 302.78 375.36
  L 302.75 373.74
  A 1.96 1.66 88.6 0 0 301.04 371.82
  L 300.50 371.84
  A 1.96 1.66 88.6 0 0 298.89 373.84
  L 298.93 375.46
  A 0.70 0.70 0.0 0 0 299.64 376.14"
/>
<path stroke="#ffffff" vector-effect="non-scaling-stroke" d="
  M 328.91 376.08
  L 331.43 376.08
  A 0.71 0.71 0.0 0 0 332.14 375.37
  L 332.14 374.04
  A 2.14 1.83 -89.9 0 0 330.31 371.90
  L 330.03 371.90
  A 2.14 1.83 -89.9 0 0 328.20 374.04
  L 328.20 375.37
  A 0.71 0.71 0.0 0 0 328.91 376.08"
/>
<path stroke="#dddddd" vector-effect="non-scaling-stroke" d="
  M 105.27 380.89
  L 105.31 372.97
  A 0.76 0.76 0.0 0 0 104.55 372.21
  L 103.35 372.20
  A 1.70 1.53 0.3 0 0 101.65 373.72
  L 101.61 380.10
  A 1.70 1.53 0.3 0 0 103.31 381.64
  L 104.51 381.65
  A 0.76 0.76 0.0 0 0 105.27 380.89"
/>
</g>
<g fill="#ffffff">
<path d="
  M 400.00 0.00
  L 400.00 400.00
  L 0.00 400.00
  L 0.00 0.00
  L 400.00 0.00
  Z
  M 113.71 58.13
  Q 114.52 48.44 105.28 48.56
  Q 99.66 48.63 92.05 48.56
  C 86.64 48.51 82.29 49.71 82.11 55.78
  Q 81.94 62.00 82.03 73.11
  C 82.10 81.19 81.08 87.00 75.71 92.03
  Q 72.34 95.19 49.15 115.43
  C 43.62 120.25 46.07 128.13 52.98 130.05
  C 59.22 131.77 62.86 128.44 67.28 124.53
  Q 79.55 113.69 160.73 42.35
  Q 166.25 37.50 169.42 36.71
  Q 174.54 35.44 179.12 39.47
  Q 218.30 73.92 275.68 124.30
  Q 280.40 128.45 281.77 129.17
  C 287.88 132.40 297.78 129.23 296.98 120.97
  Q 296.66 117.61 294.12 115.38
  Q 241.81 69.50 192.48 26.03
  C 183.40 18.03 169.97 16.44 158.97 20.80
  Q 154.80 22.45 146.36 29.89
  Q 126.34 47.50 114.20 58.37
  A 0.29 0.29 0.0 0 1 113.71 58.13
  Z
  M 193.28 242.78
  Q 188.19 243.52 183.91 243.83
  C 164.82 245.20 148.51 239.29 134.50 226.77
  C 129.27 222.09 128.78 213.88 133.93 209.47
  C 136.41 207.35 140.23 206.63 143.51 206.30
  Q 155.01 205.15 156.53 204.89
  A 1.15 1.15 0.0 0 0 157.38 203.27
  C 150.87 189.31 143.82 173.54 143.29 157.99
  C 142.88 146.25 148.72 136.93 157.41 129.54
  C 165.64 122.53 174.75 121.16 183.55 127.88
  C 195.02 136.64 201.82 148.31 199.65 162.70
  C 197.80 174.87 193.29 186.79 188.09 197.88
  A 0.55 0.55 0.0 0 0 188.76 198.63
  C 193.80 196.95 199.13 195.22 203.56 193.54
  Q 214.85 189.27 221.37 187.66
  C 233.33 184.70 247.83 183.92 260.41 187.20
  A 0.58 0.57 -82.7 0 0 261.13 186.64
  L 261.13 131.88
  A 3.15 3.14 20.7 0 0 260.06 129.52
  L 172.56 52.62
  A 1.43 1.42 -44.8 0 0 170.69 52.62
  L 83.33 129.40
  A 3.85 3.84 -20.7 0 0 82.02 132.29
  L 82.02 223.13
  A 2.20 2.19 9.5 0 0 83.50 225.20
  C 106.19 232.97 124.41 239.91 146.03 244.96
  C 161.84 248.64 178.55 249.16 193.38 243.17
  A 0.20 0.20 0.0 0 0 193.28 242.78
  Z
  M 140.42 218.71
  Q 142.15 220.77 144.50 222.51
  Q 161.85 235.37 182.22 234.23
  C 190.91 233.74 200.54 230.50 209.21 232.21
  C 218.19 233.99 209.72 243.81 206.21 246.50
  C 184.86 262.84 155.01 258.20 131.23 251.48
  Q 113.46 246.46 88.10 237.22
  C 77.06 233.20 67.12 230.86 55.90 233.66
  Q 52.39 234.53 51.39 236.00
  C 45.75 244.23 64.14 252.61 69.16 255.06
  C 96.97 268.59 122.50 280.31 150.53 290.19
  C 163.83 294.88 180.05 297.73 194.16 296.05
  Q 204.69 294.80 213.61 292.14
  Q 238.12 284.85 251.66 281.17
  Q 271.99 275.64 291.99 275.66
  C 302.29 275.67 313.22 278.21 320.92 285.07
  Q 327.19 290.66 331.58 296.54
  Q 333.75 299.44 335.04 299.96
  C 337.31 300.86 339.39 299.24 340.46 297.17
  Q 349.97 278.80 358.67 262.76
  C 360.92 258.61 362.01 255.75 357.62 252.88
  Q 331.84 235.99 313.97 223.86
  C 307.71 219.60 301.71 214.80 296.30 211.28
  Q 284.69 203.73 268.78 199.02
  Q 244.15 191.72 221.35 197.83
  Q 219.29 198.39 203.43 204.09
  Q 180.49 212.34 157.25 214.73
  Q 143.98 216.10 141.37 216.35
  A 1.44 1.44 0.0 0 0 140.42 218.71
  Z
  M 85.6188 327.0219
  A 10.43 10.43 0.0 0 0 75.2071 316.5737
  L 71.0071 316.5664
  A 10.43 10.43 0.0 0 0 60.5589 326.9781
  L 60.5212 348.5981
  A 10.43 10.43 0.0 0 0 70.9329 359.0463
  L 75.1329 359.0536
  A 10.43 10.43 0.0 0 0 85.5811 348.6419
  L 85.6188 327.0219
  Z
  M 18.96 337.67
  L 19.11 348.62
  A 2.49 2.49 0.0 0 1 16.01 351.06
  L 15.73 350.99
  A 4.22 4.22 0.0 0 1 12.43 346.86
  Q 12.46 338.14 12.43 329.54
  C 12.42 326.39 13.46 324.97 16.51 324.77
  Q 21.40 324.45 25.00 325.71
  A 0.69 0.68 -80.4 0 0 25.91 325.06
  L 25.91 318.87
  A 1.36 1.34 6.8 0 0 24.87 317.56
  C 16.26 315.49 3.64 315.74 3.57 327.99
  Q 3.45 346.69 3.61 349.20
  C 4.23 359.09 13.95 359.41 22.01 358.25
  Q 24.62 357.88 26.41 356.83
  A 2.35 2.33 -15.2 0 0 27.58 354.81
  L 27.58 338.31
  A 2.04 2.04 0.0 0 0 25.54 336.27
  L 20.35 336.27
  A 1.39 1.38 -0.4 0 0 18.96 337.67
  Z
  M 106.08 317.89
  L 106.08 347.91
  A 3.17 3.17 0.0 0 1 102.91 351.08
  L 102.27 351.08
  A 3.14 3.14 0.0 0 1 99.13 347.94
  L 99.13 318.53
  A 1.58 1.57 -0.0 0 0 97.55 316.96
  L 91.39 316.96
  A 1.27 1.27 0.0 0 0 90.12 318.24
  Q 90.16 321.18 90.10 342.26
  C 90.07 350.32 89.76 356.32 97.93 358.54
  C 105.42 360.58 114.49 358.21 114.89 348.98
  Q 115.05 345.32 114.90 318.27
  A 1.29 1.29 0.0 0 0 113.61 316.99
  L 106.97 316.99
  A 0.90 0.89 90.0 0 0 106.08 317.89
  Z
  M 32.20 317.79
  L 32.20 357.07
  A 1.26 1.26 0.0 0 0 33.46 358.33
  L 39.78 358.33
  A 1.31 1.31 0.0 0 0 41.09 357.02
  Q 41.08 346.00 41.17 344.50
  Q 41.21 343.75 41.24 343.71
  A 0.85 0.85 0.0 0 1 42.69 343.97
  L 47.25 356.61
  A 2.70 2.70 0.0 0 0 49.79 358.40
  L 55.69 358.40
  A 1.37 1.36 78.8 0 0 56.95 356.51
  L 51.76 344.03
  A 1.49 1.48 -30.6 0 1 52.21 342.30
  Q 56.20 339.12 56.35 334.04
  C 56.56 327.13 56.97 318.52 48.45 317.36
  Q 45.54 316.96 32.96 317.03
  A 0.76 0.76 0.0 0 0 32.20 317.79
  Z
  M 129.81 346.49
  C 139.85 346.42 144.39 344.97 144.39 334.01
  C 144.39 326.99 145.23 321.83 140.15 318.54
  Q 137.51 316.83 132.06 317.00
  Q 129.35 317.08 121.31 316.94
  A 1.17 1.16 -89.5 0 0 120.13 318.11
  L 120.13 356.77
  A 1.57 1.57 0.0 0 0 121.70 358.34
  L 127.54 358.34
  A 1.61 1.61 0.0 0 0 129.15 356.73
  L 129.15 347.15
  A 0.66 0.66 0.0 0 1 129.81 346.49
  Z
  M 157.32 342.09
  A 0.88 0.88 0.0 0 1 158.20 341.21
  L 167.10 341.21
  A 0.88 0.88 0.0 0 0 167.98 340.33
  L 167.98 334.37
  A 0.88 0.88 0.0 0 0 167.10 333.49
  L 158.21 333.49
  A 0.88 0.88 0.0 0 1 157.33 332.61
  L 157.33 325.58
  A 0.88 0.88 0.0 0 1 158.21 324.70
  L 168.55 324.70
  A 0.88 0.88 0.0 0 0 169.43 323.82
  L 169.43 317.93
  A 0.88 0.88 0.0 0 0 168.55 317.05
  L 149.20 317.05
  A 0.88 0.88 0.0 0 0 148.32 317.93
  L 148.32 357.46
  A 0.88 0.88 0.0 0 0 149.20 358.34
  L 168.59 358.34
  A 0.88 0.88 0.0 0 0 169.47 357.46
  L 169.47 351.75
  A 0.88 0.88 0.0 0 0 168.59 350.87
  L 158.20 350.87
  A 0.88 0.88 0.0 0 1 157.32 349.99
  L 157.32 342.09
  Z
  M 184.59 318.04
  L 184.73 357.50
  A 0.95 0.95 0.0 0 0 185.68 358.45
  L 200.48 358.40
  A 9.32 9.23 89.8 0 0 209.68 349.05
  L 209.60 326.33
  A 9.32 9.23 89.8 0 0 200.34 317.04
  L 185.54 317.09
  A 0.95 0.95 0.0 0 0 184.59 318.04
  Z
  M 210.95 367.48
  L 218.52 367.48
  A 1.19 1.17 11.2 0 0 219.61 366.76
  Q 223.51 357.64 223.53 349.74
  Q 223.64 319.54 223.64 318.42
  A 1.43 1.43 0.0 0 0 222.21 316.98
  L 216.02 316.98
  A 1.54 1.53 -89.6 0 0 214.49 318.50
  Q 214.39 327.43 214.54 344.25
  C 214.62 352.30 212.87 358.87 210.37 366.69
  A 0.61 0.61 0.0 0 0 210.95 367.48
  Z
  M 241.03 348.78
  Q 243.89 348.78 244.42 348.78
  A 0.70 0.70 0.0 0 1 245.10 349.34
  L 246.63 357.06
  A 1.56 1.55 -5.6 0 0 248.16 358.31
  L 254.40 358.31
  A 0.83 0.83 0.0 0 0 255.22 357.32
  L 247.42 318.02
  A 1.12 1.12 0.0 0 0 246.40 317.12
  Q 244.18 316.98 241.03 316.99
  Q 237.88 316.99 235.66 317.12
  A 1.12 1.12 0.0 0 0 234.63 318.02
  L 226.84 357.32
  A 0.83 0.83 0.0 0 0 227.66 358.31
  L 233.90 358.31
  A 1.56 1.55 5.6 0 0 235.43 357.06
  L 236.96 349.34
  A 0.70 0.70 0.0 0 1 237.64 348.78
  Q 238.16 348.78 241.03 348.78
  Z
  M 283.66 334.65
  L 283.12 357.08
  A 1.21 1.21 0.0 0 0 284.33 358.32
  L 290.95 358.32
  A 1.08 1.08 0.0 0 0 292.03 357.24
  L 292.03 318.31
  A 1.39 1.39 0.0 0 0 290.64 316.92
  L 284.14 316.92
  A 2.04 2.04 0.0 0 0 282.22 318.28
  L 275.86 336.48
  A 0.59 0.59 0.0 0 1 274.75 336.48
  L 268.31 318.69
  A 2.57 2.56 80.1 0 0 265.90 316.99
  L 259.11 316.99
  A 0.68 0.68 0.0 0 0 258.43 317.67
  L 258.43 357.39
  A 0.94 0.94 0.0 0 0 259.37 358.33
  L 265.86 358.33
  A 1.18 1.18 0.0 0 0 267.04 357.17
  C 267.26 348.00 267.07 341.33 266.31 334.18
  A 0.29 0.29 0.0 0 1 266.87 334.05
  L 271.45 346.72
  A 1.66 1.65 79.8 0 0 273.00 347.81
  L 277.80 347.81
  A 1.38 1.37 9.5 0 0 279.10 346.89
  L 283.40 334.60
  A 0.13 0.13 0.0 0 1 283.66 334.65
  Z
  M 306.3757 317.9822
  A 1.02 1.02 0.0 0 0 305.3539 316.9640
  L 298.3939 316.9761
  A 1.02 1.02 0.0 0 0 297.3757 317.9979
  L 297.4443 357.3378
  A 1.02 1.02 0.0 0 0 298.4661 358.3560
  L 305.4261 358.3439
  A 1.02 1.02 0.0 0 0 306.4443 357.3221
  L 306.3757 317.9822
  Z
  M 323.67 358.35
  Q 327.28 358.36 327.79 358.22
  A 0.58 0.58 0.0 0 0 328.22 357.66
  L 328.22 345.84
  A 1.58 1.52 -36.8 0 1 328.30 345.35
  L 337.71 318.47
  A 1.10 1.09 -80.3 0 0 336.68 317.01
  L 330.55 317.01
  A 2.12 2.11 -82.3 0 0 328.51 318.57
  L 324.01 334.78
  A 0.23 0.21 -86.2 0 1 323.86 334.93
  Q 323.83 334.93 323.74 334.93
  Q 323.64 334.93 323.62 334.93
  A 0.23 0.21 86.5 0 1 323.47 334.78
  L 319.05 318.54
  A 2.12 2.11 82.6 0 0 317.02 316.97
  L 310.89 316.94
  A 1.10 1.09 80.6 0 0 309.85 318.39
  L 319.12 345.33
  A 1.58 1.52 37.1 0 1 319.20 345.82
  L 319.13 357.64
  A 0.58 0.58 0.0 0 0 319.56 358.20
  Q 320.07 358.34 323.67 358.35
  Z
  M 352.79 348.78
  Q 355.65 348.78 356.18 348.79
  A 0.70 0.70 0.0 0 1 356.86 349.35
  L 358.38 357.07
  A 1.56 1.55 -5.5 0 0 359.90 358.32
  L 366.14 358.33
  A 0.83 0.83 0.0 0 0 366.96 357.34
  L 359.24 318.04
  A 1.12 1.12 0.0 0 0 358.22 317.14
  Q 356.00 317.00 352.85 316.99
  Q 349.70 316.99 347.48 317.12
  A 1.12 1.12 0.0 0 0 346.45 318.02
  L 338.59 357.29
  A 0.83 0.83 0.0 0 0 339.40 358.29
  L 345.64 358.30
  A 1.56 1.55 5.7 0 0 347.18 357.05
  L 348.72 349.33
  A 0.70 0.70 0.0 0 1 349.40 348.77
  Q 349.93 348.77 352.79 348.78
  Z
  M 378.16 317.03
  L 371.56 317.03
  A 1.17 1.17 0.0 0 0 370.39 318.20
  L 370.39 357.17
  A 1.16 1.15 -90.0 0 0 371.54 358.33
  L 377.94 358.33
  A 1.34 1.33 0.0 0 0 379.28 357.00
  L 379.28 342.36
  A 0.52 0.51 -90.0 0 1 379.79 341.84
  L 386.79 341.84
  A 0.73 0.73 0.0 0 1 387.52 342.57
  L 387.52 357.31
  A 1.02 1.02 0.0 0 0 388.54 358.33
  L 395.32 358.33
  A 1.13 1.13 0.0 0 0 396.45 357.20
  L 396.45 318.75
  A 1.75 1.74 -0.0 0 0 394.70 317.01
  L 390.32 317.01
  A 2.74 2.74 0.0 0 0 387.58 319.75
  L 387.58 333.11
  A 0.94 0.94 0.0 0 1 386.64 334.05
  L 380.13 334.05
  A 0.83 0.82 -0.0 0 1 379.30 333.23
  L 379.30 318.17
  A 1.14 1.14 0.0 0 0 378.16 317.03
  Z
  M 73.3034 367.4765
  A 0.83 0.83 0.0 0 0 72.4705 366.6494
  L 72.0905 366.6507
  A 0.83 0.83 0.0 0 0 71.2634 367.4836
  L 71.3166 382.7435
  A 0.83 0.83 0.0 0 0 72.1495 383.5706
  L 72.5295 383.5693
  A 0.83 0.83 0.0 0 0 73.3566 382.7364
  L 73.3034 367.4765
  Z
  M 164.5098 366.6414
  A 1.52 0.70 -43.1 0 0 162.9217 367.1689
  A 1.52 0.70 -43.1 0 0 162.2902 368.7186
  A 1.52 0.70 -43.1 0 0 163.8783 368.1911
  A 1.52 0.70 -43.1 0 0 164.5098 366.6414
  Z
  M 168.8458 367.3743
  A 1.38 1.17 -168.9 0 0 169.9747 368.7881
  A 1.38 1.17 -168.9 0 0 171.5542 367.9057
  A 1.38 1.17 -168.9 0 0 170.4253 366.4919
  A 1.38 1.17 -168.9 0 0 168.8458 367.3743
  Z
  M 294.41 367.72
  A 1.19 1.19 0.0 0 0 293.22 366.53
  A 1.19 1.19 0.0 0 0 292.03 367.72
  A 1.19 1.19 0.0 0 0 293.22 368.91
  A 1.19 1.19 0.0 0 0 294.41 367.72
  Z
  M 122.2051 366.7180
  A 2.67 0.90 -72.9 0 0 120.5598 369.0054
  A 2.67 0.90 -72.9 0 0 120.6349 371.8220
  A 2.67 0.90 -72.9 0 0 122.2802 369.5346
  A 2.67 0.90 -72.9 0 0 122.2051 366.7180
  Z
  M 279.9240 367.3040
  A 0.98 0.73 -39.7 0 0 278.7037 367.3683
  A 0.98 0.73 -39.7 0 0 278.4160 368.5560
  A 0.98 0.73 -39.7 0 0 279.6363 368.4917
  A 0.98 0.73 -39.7 0 0 279.9240 367.3040
  Z
  M 63.89 378.25
  Q 70.15 379.02 68.48 369.63
  A 2.32 2.31 -5.0 0 0 66.20 367.73
  L 61.94 367.73
  A 1.21 1.21 0.0 0 0 60.73 368.94
  L 60.73 382.50
  A 0.96 0.96 0.0 0 0 61.69 383.46
  L 62.08 383.46
  A 0.87 0.87 0.0 0 0 62.95 382.59
  L 62.95 379.08
  A 0.84 0.83 -86.4 0 1 63.89 378.25
  Z
  M 217.73 382.48
  L 217.74 371.05
  A 0.90 0.90 0.0 0 0 216.84 370.15
  L 216.54 370.15
  A 0.82 0.81 -89.9 0 0 215.72 370.97
  L 215.71 380.29
  A 1.46 1.46 0.0 0 1 214.25 381.75
  L 213.62 381.75
  A 1.50 1.49 0.1 0 1 212.11 380.25
  L 212.12 371.02
  A 0.84 0.84 0.0 0 0 211.28 370.17
  L 210.92 370.17
  A 0.82 0.82 0.0 0 0 210.10 370.99
  L 210.09 381.60
  A 1.65 1.64 -89.9 0 0 211.73 383.26
  L 216.94 383.27
  A 0.79 0.78 -89.9 0 0 217.73 382.48
  Z
  M 277.50 377.78
  L 281.48 377.78
  A 1.12 1.12 0.0 0 0 282.60 376.66
  L 282.60 372.51
  A 2.04 2.04 0.0 0 0 281.01 370.52
  Q 274.93 369.13 274.87 373.74
  Q 274.85 375.65 274.93 380.42
  A 3.08 3.07 -78.1 0 0 276.69 383.14
  Q 278.27 383.88 281.60 383.39
  A 0.99 0.99 0.0 0 0 282.44 382.41
  L 282.44 382.11
  A 0.63 0.63 0.0 0 0 281.63 381.51
  C 278.68 382.40 276.75 382.00 276.82 378.46
  A 0.69 0.68 -89.6 0 1 277.50 377.78
  Z
  M 83.82 382.47
  L 83.84 371.13
  A 0.90 0.90 0.0 0 0 82.95 370.23
  L 82.65 370.23
  A 0.82 0.81 -89.9 0 0 81.84 371.05
  L 81.83 380.30
  A 1.45 1.45 0.0 0 1 80.37 381.75
  L 79.74 381.75
  A 1.49 1.48 0.1 0 1 78.25 380.26
  L 78.26 371.09
  A 0.84 0.84 0.0 0 0 77.43 370.25
  L 77.07 370.25
  A 0.82 0.82 0.0 0 0 76.25 371.07
  L 76.24 381.60
  A 1.64 1.63 -89.9 0 0 77.87 383.25
  L 83.05 383.26
  A 0.79 0.78 -89.9 0 0 83.82 382.47
  Z
  M 117.92 382.48
  L 117.81 371.12
  A 0.90 0.90 0.0 0 0 116.91 370.24
  L 116.61 370.24
  A 0.82 0.81 89.5 0 0 115.81 371.06
  L 115.89 380.32
  A 1.46 1.46 0.0 0 1 114.45 381.79
  L 113.82 381.80
  A 1.50 1.49 -0.5 0 1 112.32 380.33
  L 112.23 371.15
  A 0.84 0.84 0.0 0 0 111.39 370.32
  L 111.03 370.32
  A 0.82 0.82 0.0 0 0 110.22 371.14
  L 110.31 381.69
  A 1.64 1.63 89.5 0 0 111.96 383.32
  L 117.15 383.27
  A 0.79 0.78 89.5 0 0 117.92 382.48
  Z
  M 132.58 382.49
  L 132.57 371.06
  A 0.90 0.90 0.0 0 0 131.66 370.16
  L 131.36 370.16
  A 0.82 0.81 89.9 0 0 130.55 370.99
  L 130.56 380.30
  A 1.46 1.46 0.0 0 1 129.10 381.77
  L 128.47 381.77
  A 1.50 1.49 -0.1 0 1 126.96 380.28
  L 126.95 371.04
  A 0.84 0.84 0.0 0 0 126.11 370.20
  L 125.75 370.20
  A 0.82 0.82 0.0 0 0 124.93 371.02
  L 124.94 381.63
  A 1.65 1.64 89.9 0 0 126.58 383.28
  L 131.80 383.28
  A 0.79 0.78 89.9 0 0 132.58 382.49
  Z
  M 161.50 377.79
  L 165.46 377.78
  A 1.11 1.11 0.0 0 0 166.57 376.67
  L 166.56 372.55
  A 2.03 2.03 0.0 0 0 164.98 370.57
  Q 158.94 369.20 158.88 373.78
  Q 158.87 375.68 158.95 380.42
  A 3.06 3.05 -78.2 0 0 160.71 383.11
  Q 162.28 383.85 165.58 383.35
  A 0.98 0.98 0.0 0 0 166.42 382.38
  L 166.42 382.08
  A 0.63 0.62 -8.4 0 0 165.61 381.49
  C 162.68 382.38 160.76 381.98 160.83 378.47
  A 0.69 0.68 -89.7 0 1 161.50 377.79
  Z
  M 169.25 371.20
  Q 169.39 381.17 169.30 383.27
  C 169.23 384.85 167.85 384.78 167.21 385.82
  A 1.04 0.79 -0.5 0 0 168.61 386.86
  C 170.63 386.12 171.26 384.73 171.22 382.53
  Q 171.14 377.71 171.29 371.04
  A 0.74 0.73 0.8 0 0 170.55 370.29
  L 170.15 370.29
  A 0.90 0.90 0.0 0 0 169.25 371.20
  Z
  M 181.6381 373.2063
  A 2.94 2.94 0.0 0 0 178.6725 370.2920
  L 176.7926 370.3085
  A 2.94 2.94 0.0 0 0 173.8784 373.2740
  L 173.9419 380.5537
  A 2.94 2.94 0.0 0 0 176.9075 383.4680
  L 178.7874 383.4515
  A 2.94 2.94 0.0 0 0 181.7016 380.4860
  L 181.6381 373.2063
  Z
  M 192.13 382.54
  L 192.13 371.15
  A 0.90 0.90 0.0 0 0 191.23 370.25
  L 190.93 370.25
  A 0.82 0.81 -90.0 0 0 190.12 371.07
  L 190.12 380.36
  A 1.46 1.46 0.0 0 1 188.66 381.82
  L 188.03 381.82
  A 1.50 1.49 0.0 0 1 186.53 380.33
  L 186.53 371.12
  A 0.84 0.84 0.0 0 0 185.69 370.28
  L 185.33 370.28
  A 0.82 0.82 0.0 0 0 184.51 371.10
  L 184.51 381.68
  A 1.65 1.64 90.0 0 0 186.15 383.33
  L 191.35 383.33
  A 0.79 0.78 -90.0 0 0 192.13 382.54
  Z
  M 195.09 370.72
  L 195.16 382.64
  A 0.89 0.89 0.0 0 0 196.05 383.52
  L 196.37 383.52
  A 0.87 0.87 0.0 0 0 197.23 382.65
  L 197.17 373.41
  A 0.86 0.85 -6.0 0 1 197.86 372.56
  L 199.53 372.22
  A 0.86 0.85 -6.0 0 0 200.22 371.38
  L 200.21 370.92
  A 0.60 0.60 0.0 0 0 199.35 370.38
  Q 197.60 371.20 195.75 370.30
  A 0.46 0.46 0.0 0 0 195.09 370.72
  Z
  M 220.75 371.33
  L 220.75 382.70
  A 0.90 0.90 0.0 0 0 221.65 383.60
  L 221.95 383.60
  A 0.82 0.81 -90.0 0 0 222.76 382.78
  L 222.76 373.51
  A 1.46 1.46 0.0 0 1 224.22 372.05
  L 224.84 372.05
  A 1.50 1.49 0.0 0 1 226.34 373.54
  L 226.34 382.73
  A 0.84 0.84 0.0 0 0 227.18 383.57
  L 227.54 383.57
  A 0.82 0.82 0.0 0 0 228.36 382.75
  L 228.36 372.19
  A 1.65 1.64 -90.0 0 0 226.72 370.55
  L 221.53 370.54
  A 0.79 0.78 -90.0 0 0 220.75 371.33
  Z
  M 233.61 377.77
  L 237.58 377.77
  A 1.12 1.12 0.0 0 0 238.70 376.66
  L 238.70 372.52
  A 2.04 2.04 0.0 0 0 237.11 370.53
  Q 231.04 369.14 230.98 373.74
  Q 230.96 375.65 231.04 380.41
  A 3.08 3.06 -78.1 0 0 232.80 383.12
  Q 234.38 383.86 237.70 383.37
  A 0.99 0.99 0.0 0 0 238.54 382.39
  L 238.54 382.09
  A 0.63 0.63 0.0 0 0 237.73 381.50
  C 234.79 382.38 232.86 381.98 232.93 378.45
  A 0.69 0.68 -89.6 0 1 233.61 377.77
  Z
  M 248.08 377.77
  L 252.05 377.79
  A 1.12 1.12 0.0 0 0 253.18 376.68
  L 253.21 372.54
  A 2.04 2.04 0.0 0 0 251.63 370.54
  Q 245.57 369.11 245.48 373.71
  Q 245.44 375.62 245.49 380.38
  A 3.08 3.06 -77.7 0 0 247.23 383.11
  Q 248.80 383.86 252.13 383.40
  A 0.99 0.99 0.0 0 0 252.98 382.42
  L 252.98 382.12
  A 0.63 0.63 0.0 0 0 252.18 381.52
  C 249.22 382.39 247.30 381.98 247.39 378.44
  A 0.69 0.68 -89.2 0 1 248.08 377.77
  Z
  M 257.35 376.89
  Q 257.35 377.02 257.31 377.13
  Q 256.25 379.82 255.04 382.65
  A 0.70 0.70 0.0 0 0 255.66 383.62
  L 255.80 383.63
  A 1.43 1.42 10.9 0 0 257.18 382.70
  Q 258.44 379.33 258.70 379.37
  Q 258.96 379.33 260.22 382.70
  A 1.43 1.42 -11.1 0 0 261.61 383.62
  L 261.75 383.61
  A 0.70 0.70 0.0 0 0 262.37 382.64
  Q 261.15 379.81 260.08 377.12
  Q 260.03 377.01 260.03 376.89
  Q 260.03 376.77 260.08 376.66
  Q 261.14 373.97 262.35 371.14
  A 0.70 0.70 0.0 0 0 261.73 370.17
  L 261.59 370.16
  A 1.43 1.42 10.9 0 0 260.20 371.08
  Q 258.95 374.46 258.69 374.42
  Q 258.43 374.46 257.16 371.09
  A 1.43 1.42 -11.1 0 0 255.78 370.17
  L 255.64 370.18
  A 0.70 0.70 0.0 0 0 255.02 371.15
  Q 256.24 373.97 257.31 376.66
  Q 257.35 376.77 257.35 376.89
  Z
  M 267.60 383.41
  Q 272.08 384.35 272.34 380.14
  Q 272.61 375.94 272.16 372.39
  A 2.21 2.20 -3.5 0 0 269.97 370.46
  L 265.70 370.46
  A 1.09 1.09 0.0 0 0 264.61 371.55
  L 264.61 386.11
  A 0.92 0.92 0.0 0 0 265.53 387.03
  L 265.82 387.03
  A 0.92 0.91 86.1 0 0 266.72 385.99
  Q 266.54 384.74 266.69 384.00
  A 0.77 0.77 0.0 0 1 267.60 383.41
  Z
  M 285.15 370.70
  L 285.15 382.80
  A 0.90 0.90 0.0 0 0 286.05 383.70
  L 286.37 383.70
  A 0.88 0.88 0.0 0 0 287.25 382.82
  L 287.25 373.44
  A 0.87 0.87 0.0 0 1 287.95 372.59
  L 289.65 372.25
  A 0.87 0.87 0.0 0 0 290.35 371.40
  L 290.35 370.93
  A 0.61 0.61 0.0 0 0 289.48 370.38
  Q 287.70 371.20 285.82 370.28
  A 0.47 0.47 0.0 0 0 285.15 370.70
  Z
  M 294.2099 371.2163
  A 0.90 0.90 0.0 0 0 293.3068 370.3194
  L 292.9468 370.3207
  A 0.90 0.90 0.0 0 0 292.0499 371.2238
  L 292.0901 382.7237
  A 0.90 0.90 0.0 0 0 292.9932 383.6206
  L 293.3532 383.6193
  A 0.90 0.90 0.0 0 0 294.2501 382.7162
  L 294.2099 371.2163
  Z
  M 299.51 377.75
  L 303.48 377.79
  A 1.12 1.12 0.0 0 0 304.61 376.68
  L 304.65 372.55
  A 2.03 2.03 0.0 0 0 303.09 370.54
  Q 297.04 369.09 296.93 373.69
  Q 296.89 375.59 296.92 380.35
  A 3.07 3.06 -77.4 0 0 298.64 383.08
  Q 300.21 383.84 303.54 383.38
  A 0.99 0.99 0.0 0 0 304.38 382.41
  L 304.39 382.12
  A 0.63 0.63 0.0 0 0 303.59 381.51
  C 300.64 382.36 298.72 381.95 298.82 378.42
  A 0.69 0.68 -89.0 0 1 299.51 377.75
  Z
  M 307.24 371.26
  L 307.24 382.71
  A 0.90 0.90 0.0 0 0 308.15 383.61
  L 308.45 383.61
  A 0.82 0.81 90.0 0 0 309.26 382.79
  L 309.26 373.45
  A 1.47 1.47 0.0 0 1 310.73 371.98
  L 311.36 371.98
  A 1.51 1.50 -0.0 0 1 312.87 373.48
  L 312.87 382.73
  A 0.84 0.84 0.0 0 0 313.72 383.58
  L 314.08 383.58
  A 0.82 0.82 0.0 0 0 314.90 382.75
  L 314.90 372.12
  A 1.66 1.65 90.0 0 0 313.25 370.46
  L 308.02 370.46
  A 0.79 0.78 90.0 0 0 307.24 371.26
  Z
  M 317.41 376.92
  Q 317.42 380.01 317.52 380.90
  A 2.81 2.81 0.0 0 0 319.60 383.32
  Q 320.91 383.67 323.47 383.43
  A 0.97 0.97 0.0 0 0 324.35 382.46
  L 324.35 382.14
  A 0.75 0.75 0.0 0 0 323.39 381.42
  Q 321.48 381.98 320.42 381.42
  A 1.51 1.49 6.1 0 1 319.66 380.50
  Q 319.65 380.46 319.64 376.91
  Q 319.63 373.37 319.64 373.33
  A 1.51 1.49 -6.5 0 1 320.39 372.40
  Q 321.44 371.83 323.36 372.38
  A 0.75 0.75 0.0 0 0 324.31 371.65
  L 324.31 371.33
  A 0.97 0.97 0.0 0 0 323.42 370.37
  Q 320.86 370.15 319.55 370.51
  A 2.81 2.81 0.0 0 0 317.49 372.95
  Q 317.40 373.83 317.41 376.92
  Z
  M 328.88 377.77
  L 332.88 377.75
  A 1.13 1.13 0.0 0 0 334.00 376.62
  L 333.98 372.45
  A 2.05 2.05 0.0 0 0 332.38 370.46
  Q 326.26 369.08 326.22 373.72
  Q 326.21 375.64 326.30 380.43
  A 3.10 3.08 -78.3 0 0 328.08 383.16
  Q 329.67 383.89 333.02 383.39
  A 1.00 1.00 0.0 0 0 333.86 382.40
  L 333.86 382.10
  A 0.63 0.63 0.0 0 0 333.04 381.50
  C 330.08 382.41 328.14 382.01 328.19 378.45
  A 0.69 0.68 -89.8 0 1 328.88 377.77
  Z
  M 86.07 382.42
  A 0.92 0.91 -84.2 0 0 86.80 383.32
  Q 88.49 383.68 90.74 383.30
  C 93.47 382.85 93.98 379.92 92.77 377.89
  A 1.61 1.61 0.0 0 0 92.16 377.28
  L 88.80 375.34
  A 1.35 1.34 -79.9 0 1 88.13 374.37
  Q 87.66 371.45 92.22 372.16
  A 0.66 0.66 0.0 0 0 92.98 371.59
  L 93.00 371.46
  A 0.84 0.84 0.0 0 0 92.30 370.53
  Q 90.00 370.18 87.56 370.81
  A 1.36 1.34 -83.3 0 0 86.69 371.51
  Q 85.46 373.88 86.89 376.26
  A 1.06 1.06 0.0 0 0 87.27 376.64
  L 90.69 378.61
  A 1.65 1.65 0.0 0 1 90.41 381.59
  Q 89.01 382.07 86.72 381.52
  A 0.53 0.52 -83.1 0 0 86.07 382.03
  L 86.07 382.42
  Z
  M 104.40 383.22
  A 0.75 0.75 0.0 0 1 105.29 383.80
  Q 105.43 384.53 105.25 385.76
  A 0.90 0.90 0.0 0 0 106.13 386.79
  L 106.42 386.79
  A 0.91 0.91 0.0 0 0 107.33 385.89
  L 107.38 371.55
  A 1.07 1.07 0.0 0 0 106.31 370.47
  L 102.11 370.46
  A 2.17 2.17 0.0 0 0 99.94 372.35
  Q 99.49 375.85 99.74 379.98
  Q 99.98 384.13 104.40 383.22
  Z
  M 135.58 371.30
  L 135.57 382.71
  A 0.90 0.90 0.0 0 0 136.47 383.62
  L 136.77 383.62
  A 0.82 0.81 -89.9 0 0 137.58 382.80
  L 137.59 373.49
  A 1.46 1.46 0.0 0 1 139.06 372.03
  L 139.69 372.03
  A 1.50 1.49 0.1 0 1 141.19 373.52
  L 141.18 382.75
  A 0.84 0.84 0.0 0 0 142.02 383.59
  L 142.38 383.59
  A 0.82 0.82 0.0 0 0 143.20 382.77
  L 143.21 372.17
  A 1.65 1.64 -89.9 0 0 141.57 370.52
  L 136.36 370.51
  A 0.79 0.78 -89.9 0 0 135.58 371.30
  Z
  M 149.57 382.37
  A 0.92 0.91 -83.8 0 0 150.29 383.27
  Q 151.97 383.64 154.22 383.28
  C 156.94 382.85 157.47 379.93 156.28 377.90
  A 1.60 1.60 0.0 0 0 155.68 377.29
  L 152.34 375.33
  A 1.35 1.34 -79.5 0 1 151.68 374.36
  Q 151.23 371.45 155.77 372.19
  A 0.66 0.66 0.0 0 0 156.53 371.62
  L 156.55 371.50
  A 0.84 0.83 8.6 0 0 155.86 370.56
  Q 153.57 370.20 151.13 370.81
  A 1.36 1.34 -82.9 0 0 150.26 371.50
  Q 149.02 373.86 150.43 376.24
  A 1.05 1.05 0.0 0 0 150.81 376.62
  L 154.20 378.61
  A 1.64 1.64 0.0 0 1 153.90 381.57
  Q 152.50 382.04 150.22 381.48
  A 0.52 0.52 0.0 0 0 149.57 381.98
  L 149.57 382.37
  Z
  M 338.51 382.49
  A 1.34 1.34 0.0 0 0 337.17 381.15
  A 1.34 1.34 0.0 0 0 335.83 382.49
  A 1.34 1.34 0.0 0 0 337.17 383.83
  A 1.34 1.34 0.0 0 0 338.51 382.49
  Z
  M 203.57 381.53
  L 201.97 381.03
  A 0.17 0.17 0.0 0 0 201.75 381.14
  L 201.70 381.33
  A 4.60 0.89 -72.7 0 0 201.18 385.98
  L 201.41 386.05
  A 4.60 0.89 -72.7 0 0 203.62 381.93
  L 203.68 381.74
  A 0.17 0.17 0.0 0 0 203.57 381.53
  Z"
/>
<circle cx="171.57" cy="100.88" r="16.24"/>
<path d="
  M 40.91 325.76
  A 1.44 1.44 0.0 0 1 42.34 324.31
  L 44.48 324.29
  A 3.24 2.86 89.5 0 1 47.37 327.50
  L 47.41 333.12
  A 3.24 2.86 89.5 0 1 44.58 336.39
  L 42.44 336.41
  A 1.44 1.44 0.0 0 1 40.99 334.98
  L 40.91 325.76
  Z"
/>
<rect x="-3.70" y="-13.38" transform="translate(73.07,337.77) rotate(0.1)" width="7.40" height="26.76" rx="3.17"/>
<path d="
  M 193.59 325.06
  A 0.81 0.81 0.0 0 1 194.40 324.25
  L 198.08 324.25
  A 2.69 2.53 -90.0 0 1 200.61 326.94
  L 200.61 348.38
  A 2.69 2.53 -90.0 0 1 198.08 351.07
  L 194.40 351.07
  A 0.81 0.81 0.0 0 1 193.59 350.26
  L 193.59 325.06
  Z"
/>
<path d="
  M 129.09 325.47
  A 0.94 0.94 0.0 0 1 130.03 324.53
  L 132.58 324.53
  A 3.01 2.83 90.0 0 1 135.41 327.54
  L 135.41 335.62
  A 3.01 2.83 -90.0 0 1 132.58 338.63
  L 130.03 338.63
  A 0.94 0.94 0.0 0 1 129.09 337.69
  L 129.09 325.47
  Z"
/>
<path d="
  M 238.21 340.81
  L 240.58 327.16
  A 0.38 0.38 0.0 0 1 241.32 327.16
  L 243.79 340.79
  A 0.38 0.38 0.0 0 1 243.42 341.24
  L 238.58 341.26
  A 0.38 0.38 0.0 0 1 238.21 340.81
  Z"
/>
<path d="
  M 349.94 340.86
  L 352.39 326.98
  A 0.33 0.33 0.0 0 1 353.04 326.97
  L 355.54 340.85
  A 0.33 0.33 0.0 0 1 355.22 341.24
  L 350.26 341.25
  A 0.33 0.33 0.0 0 1 349.94 340.86
  Z"
/>
<path d="
  M 62.91 370.25
  A 0.78 0.78 0.0 0 1 63.68 369.47
  L 64.80 369.46
  A 1.90 1.81 -0.3 0 1 66.71 371.26
  L 66.73 374.64
  A 1.90 1.81 -0.3 0 1 64.84 376.46
  L 63.72 376.47
  A 0.78 0.78 0.0 0 1 62.93 375.69
  L 62.91 370.25
  Z"
/>
<path d="
  M 161.38 376.22
  A 0.56 0.56 0.0 0 1 160.80 375.67
  L 160.77 373.81
  A 1.98 1.87 88.8 0 1 162.59 371.79
  L 162.89 371.79
  A 1.98 1.87 88.8 0 1 164.80 373.73
  L 164.84 375.59
  A 0.56 0.56 0.0 0 1 164.30 376.16
  L 161.38 376.22
  Z"
/>
<rect x="-1.94" y="-5.09" transform="translate(177.80,376.91) rotate(0.3)" width="3.88" height="10.18" rx="1.73"/>
<path d="
  M 233.52 376.11
  A 0.54 0.54 0.0 0 1 232.98 375.58
  L 232.95 373.88
  A 2.02 1.76 89.1 0 1 234.68 371.83
  L 235.10 371.83
  A 2.02 1.76 89.1 0 1 236.89 373.82
  L 236.91 375.52
  A 0.54 0.54 0.0 0 1 236.38 376.07
  L 233.52 376.11
  Z"
/>
<path d="
  M 248.18 376.15
  A 0.70 0.70 0.0 0 1 247.47 375.47
  L 247.42 373.72
  A 1.85 1.68 88.6 0 1 249.06 371.83
  L 249.54 371.81
  A 1.85 1.68 88.6 0 1 251.26 373.62
  L 251.30 375.37
  A 0.70 0.70 0.0 0 1 250.62 376.09
  L 248.18 376.15
  Z"
/>
<path d="
  M 299.64 376.14
  A 0.70 0.70 0.0 0 1 298.93 375.46
  L 298.89 373.84
  A 1.96 1.66 88.6 0 1 300.50 371.84
  L 301.04 371.82
  A 1.96 1.66 88.6 0 1 302.75 373.74
  L 302.78 375.36
  A 0.70 0.70 0.0 0 1 302.10 376.08
  L 299.64 376.14
  Z"
/>
<rect x="-1.81" y="-4.70" transform="translate(268.51,376.83) rotate(0.5)" width="3.62" height="9.40" rx="1.27"/>
<path d="
  M 277.65 376.22
  A 0.79 0.79 0.0 0 1 276.84 375.44
  L 276.82 373.90
  A 1.95 1.67 89.0 0 1 278.45 371.92
  L 278.91 371.92
  A 1.95 1.67 89.0 0 1 280.62 373.84
  L 280.64 375.38
  A 0.79 0.79 0.0 0 1 279.87 376.18
  L 277.65 376.22
  Z"
/>
<path d="
  M 328.91 376.08
  A 0.71 0.71 0.0 0 1 328.20 375.37
  L 328.20 374.04
  A 2.14 1.83 -89.9 0 1 330.03 371.90
  L 330.31 371.90
  A 2.14 1.83 -89.9 0 1 332.14 374.04
  L 332.14 375.37
  A 0.71 0.71 0.0 0 1 331.43 376.08
  L 328.91 376.08
  Z"
/>
<path d="
  M 105.27 380.89
  A 0.76 0.76 0.0 0 1 104.51 381.65
  L 103.31 381.64
  A 1.70 1.53 0.3 0 1 101.61 380.10
  L 101.65 373.72
  A 1.70 1.53 0.3 0 1 103.35 372.20
  L 104.55 372.21
  A 0.76 0.76 0.0 0 1 105.31 372.97
  L 105.27 380.89
  Z"
/>
</g>
<g fill="#0b3c3d">
<path d="
  M 113.71 58.13
  A 0.29 0.29 0.0 0 0 114.20 58.37
  Q 126.34 47.50 146.36 29.89
  Q 154.80 22.45 158.97 20.80
  C 169.97 16.44 183.40 18.03 192.48 26.03
  Q 241.81 69.50 294.12 115.38
  Q 296.66 117.61 296.98 120.97
  C 297.78 129.23 287.88 132.40 281.77 129.17
  Q 280.40 128.45 275.68 124.30
  Q 218.30 73.92 179.12 39.47
  Q 174.54 35.44 169.42 36.71
  Q 166.25 37.50 160.73 42.35
  Q 79.55 113.69 67.28 124.53
  C 62.86 128.44 59.22 131.77 52.98 130.05
  C 46.07 128.13 43.62 120.25 49.15 115.43
  Q 72.34 95.19 75.71 92.03
  C 81.08 87.00 82.10 81.19 82.03 73.11
  Q 81.94 62.00 82.11 55.78
  C 82.29 49.71 86.64 48.51 92.05 48.56
  Q 99.66 48.63 105.28 48.56
  Q 114.52 48.44 113.71 58.13
  Z"
/>
<path d="
  M 193.28 242.78
  A 0.20 0.20 0.0 0 1 193.38 243.17
  C 178.55 249.16 161.84 248.64 146.03 244.96
  C 124.41 239.91 106.19 232.97 83.50 225.20
  A 2.20 2.19 9.5 0 1 82.02 223.13
  L 82.02 132.29
  A 3.85 3.84 -20.7 0 1 83.33 129.40
  L 170.69 52.62
  A 1.43 1.42 -44.8 0 1 172.56 52.62
  L 260.06 129.52
  A 3.15 3.14 20.7 0 1 261.13 131.88
  L 261.13 186.64
  A 0.58 0.57 -82.7 0 1 260.41 187.20
  C 247.83 183.92 233.33 184.70 221.37 187.66
  Q 214.85 189.27 203.56 193.54
  C 199.13 195.22 193.80 196.95 188.76 198.63
  A 0.55 0.55 0.0 0 1 188.09 197.88
  C 193.29 186.79 197.80 174.87 199.65 162.70
  C 201.82 148.31 195.02 136.64 183.55 127.88
  C 174.75 121.16 165.64 122.53 157.41 129.54
  C 148.72 136.93 142.88 146.25 143.29 157.99
  C 143.82 173.54 150.87 189.31 157.38 203.27
  A 1.15 1.15 0.0 0 1 156.53 204.89
  Q 155.01 205.15 143.51 206.30
  C 140.23 206.63 136.41 207.35 133.93 209.47
  C 128.78 213.88 129.27 222.09 134.50 226.77
  C 148.51 239.29 164.82 245.20 183.91 243.83
  Q 188.19 243.52 193.28 242.78
  Z
  M 187.81 100.88
  A 16.24 16.24 0.0 0 0 171.57 84.64
  A 16.24 16.24 0.0 0 0 155.33 100.88
  A 16.24 16.24 0.0 0 0 171.57 117.12
  A 16.24 16.24 0.0 0 0 187.81 100.88
  Z"
/>
<path d="
  M 85.5811 348.6419
  A 10.43 10.43 0.0 0 1 75.1329 359.0536
  L 70.9329 359.0463
  A 10.43 10.43 0.0 0 1 60.5212 348.5981
  L 60.5589 326.9781
  A 10.43 10.43 0.0 0 1 71.0071 316.5664
  L 75.2071 316.5737
  A 10.43 10.43 0.0 0 1 85.6188 327.0219
  L 85.5811 348.6419
  Z
  M 76.7878 327.5665
  A 3.17 3.17 0.0 0 0 73.6234 324.3909
  L 72.5634 324.3891
  A 3.17 3.17 0.0 0 0 69.3878 327.5536
  L 69.3522 347.9735
  A 3.17 3.17 0.0 0 0 72.5166 351.1491
  L 73.5766 351.1509
  A 3.17 3.17 0.0 0 0 76.7522 347.9864
  L 76.7878 327.5665
  Z"
/>
<path d="
  M 18.96 337.67
  A 1.39 1.38 -0.4 0 1 20.35 336.27
  L 25.54 336.27
  A 2.04 2.04 0.0 0 1 27.58 338.31
  L 27.58 354.81
  A 2.35 2.33 -15.2 0 1 26.41 356.83
  Q 24.62 357.88 22.01 358.25
  C 13.95 359.41 4.23 359.09 3.61 349.20
  Q 3.45 346.69 3.57 327.99
  C 3.64 315.74 16.26 315.49 24.87 317.56
  A 1.36 1.34 6.8 0 1 25.91 318.87
  L 25.91 325.06
  A 0.69 0.68 -80.4 0 1 25.00 325.71
  Q 21.40 324.45 16.51 324.77
  C 13.46 324.97 12.42 326.39 12.43 329.54
  Q 12.46 338.14 12.43 346.86
  A 4.22 4.22 0.0 0 0 15.73 350.99
  L 16.01 351.06
  A 2.49 2.49 0.0 0 0 19.11 348.62
  L 18.96 337.67
  Z"
/>
<path d="
  M 106.08 317.89
  A 0.90 0.89 90.0 0 1 106.97 316.99
  L 113.61 316.99
  A 1.29 1.29 0.0 0 1 114.90 318.27
  Q 115.05 345.32 114.89 348.98
  C 114.49 358.21 105.42 360.58 97.93 358.54
  C 89.76 356.32 90.07 350.32 90.10 342.26
  Q 90.16 321.18 90.12 318.24
  A 1.27 1.27 0.0 0 1 91.39 316.96
  L 97.55 316.96
  A 1.58 1.57 -0.0 0 1 99.13 318.53
  L 99.13 347.94
  A 3.14 3.14 0.0 0 0 102.27 351.08
  L 102.91 351.08
  A 3.17 3.17 0.0 0 0 106.08 347.91
  L 106.08 317.89
  Z"
/>
<path d="
  M 32.96 317.03
  Q 45.54 316.96 48.45 317.36
  C 56.97 318.52 56.56 327.13 56.35 334.04
  Q 56.20 339.12 52.21 342.30
  A 1.49 1.48 -30.6 0 0 51.76 344.03
  L 56.95 356.51
  A 1.37 1.36 78.8 0 1 55.69 358.40
  L 49.79 358.40
  A 2.70 2.70 0.0 0 1 47.25 356.61
  L 42.69 343.97
  A 0.85 0.85 0.0 0 0 41.24 343.71
  Q 41.21 343.75 41.17 344.50
  Q 41.08 346.00 41.09 357.02
  A 1.31 1.31 0.0 0 1 39.78 358.33
  L 33.46 358.33
  A 1.26 1.26 0.0 0 1 32.20 357.07
  L 32.20 317.79
  A 0.76 0.76 0.0 0 1 32.96 317.03
  Z
  M 40.91 325.76
  L 40.99 334.98
  A 1.44 1.44 0.0 0 0 42.44 336.41
  L 44.58 336.39
  A 3.24 2.86 89.5 0 0 47.41 333.12
  L 47.37 327.50
  A 3.24 2.86 89.5 0 0 44.48 324.29
  L 42.34 324.31
  A 1.44 1.44 0.0 0 0 40.91 325.76
  Z"
/>
<path d="
  M 129.15 347.15
  L 129.15 356.73
  A 1.61 1.61 0.0 0 1 127.54 358.34
  L 121.70 358.34
  A 1.57 1.57 0.0 0 1 120.13 356.77
  L 120.13 318.11
  A 1.17 1.16 -89.5 0 1 121.31 316.94
  Q 129.35 317.08 132.06 317.00
  Q 137.51 316.83 140.15 318.54
  C 145.23 321.83 144.39 326.99 144.39 334.01
  C 144.39 344.97 139.85 346.42 129.81 346.49
  A 0.66 0.66 0.0 0 0 129.15 347.15
  Z
  M 129.09 325.47
  L 129.09 337.69
  A 0.94 0.94 0.0 0 0 130.03 338.63
  L 132.58 338.63
  A 3.01 2.83 -90.0 0 0 135.41 335.62
  L 135.41 327.54
  A 3.01 2.83 90.0 0 0 132.58 324.53
  L 130.03 324.53
  A 0.94 0.94 0.0 0 0 129.09 325.47
  Z"
/>
<path d="
  M 157.32 342.09
  L 157.32 349.99
  A 0.88 0.88 0.0 0 0 158.20 350.87
  L 168.59 350.87
  A 0.88 0.88 0.0 0 1 169.47 351.75
  L 169.47 357.46
  A 0.88 0.88 0.0 0 1 168.59 358.34
  L 149.20 358.34
  A 0.88 0.88 0.0 0 1 148.32 357.46
  L 148.32 317.93
  A 0.88 0.88 0.0 0 1 149.20 317.05
  L 168.55 317.05
  A 0.88 0.88 0.0 0 1 169.43 317.93
  L 169.43 323.82
  A 0.88 0.88 0.0 0 1 168.55 324.70
  L 158.21 324.70
  A 0.88 0.88 0.0 0 0 157.33 325.58
  L 157.33 332.61
  A 0.88 0.88 0.0 0 0 158.21 333.49
  L 167.10 333.49
  A 0.88 0.88 0.0 0 1 167.98 334.37
  L 167.98 340.33
  A 0.88 0.88 0.0 0 1 167.10 341.21
  L 158.20 341.21
  A 0.88 0.88 0.0 0 0 157.32 342.09
  Z"
/>
<path d="
  M 184.59 318.04
  A 0.95 0.95 0.0 0 1 185.54 317.09
  L 200.34 317.04
  A 9.32 9.23 89.8 0 1 209.60 326.33
  L 209.68 349.05
  A 9.32 9.23 89.8 0 1 200.48 358.40
  L 185.68 358.45
  A 0.95 0.95 0.0 0 1 184.73 357.50
  L 184.59 318.04
  Z
  M 193.59 325.06
  L 193.59 350.26
  A 0.81 0.81 0.0 0 0 194.40 351.07
  L 198.08 351.07
  A 2.69 2.53 90.0 0 0 200.61 348.38
  L 200.61 326.94
  A 2.69 2.53 -90.0 0 0 198.08 324.25
  L 194.40 324.25
  A 0.81 0.81 0.0 0 0 193.59 325.06
  Z"
/>
<path d="
  M 210.37 366.69
  C 212.87 358.87 214.62 352.30 214.54 344.25
  Q 214.39 327.43 214.49 318.50
  A 1.54 1.53 -89.6 0 1 216.02 316.98
  L 222.21 316.98
  A 1.43 1.43 0.0 0 1 223.64 318.42
  Q 223.64 319.54 223.53 349.74
  Q 223.51 357.64 219.61 366.76
  A 1.19 1.17 11.2 0 1 218.52 367.48
  L 210.95 367.48
  A 0.61 0.61 0.0 0 1 210.37 366.69
  Z"
/>
<path d="
  M 241.03 316.99
  Q 244.18 316.98 246.40 317.12
  A 1.12 1.12 0.0 0 1 247.42 318.02
  L 255.22 357.32
  A 0.83 0.83 0.0 0 1 254.40 358.31
  L 248.16 358.31
  A 1.56 1.55 -5.6 0 1 246.63 357.06
  L 245.10 349.34
  A 0.70 0.70 0.0 0 0 244.42 348.78
  Q 243.89 348.78 241.03 348.78
  Q 238.16 348.78 237.64 348.78
  A 0.70 0.70 0.0 0 0 236.96 349.34
  L 235.43 357.06
  A 1.56 1.55 5.6 0 1 233.90 358.31
  L 227.66 358.31
  A 0.83 0.83 0.0 0 1 226.84 357.32
  L 234.63 318.02
  A 1.12 1.12 0.0 0 1 235.66 317.12
  Q 237.88 316.99 241.03 316.99
  Z
  M 238.21 340.81
  A 0.38 0.38 0.0 0 0 238.58 341.26
  L 243.42 341.24
  A 0.38 0.38 0.0 0 0 243.79 340.79
  L 241.32 327.16
  A 0.38 0.38 0.0 0 0 240.58 327.16
  L 238.21 340.81
  Z"
/>
<path d="
  M 283.66 334.65
  A 0.13 0.13 0.0 0 0 283.40 334.60
  L 279.10 346.89
  A 1.38 1.37 9.5 0 1 277.80 347.81
  L 273.00 347.81
  A 1.66 1.65 79.8 0 1 271.45 346.72
  L 266.87 334.05
  A 0.29 0.29 0.0 0 0 266.31 334.18
  C 267.07 341.33 267.26 348.00 267.04 357.17
  A 1.18 1.18 0.0 0 1 265.86 358.33
  L 259.37 358.33
  A 0.94 0.94 0.0 0 1 258.43 357.39
  L 258.43 317.67
  A 0.68 0.68 0.0 0 1 259.11 316.99
  L 265.90 316.99
  A 2.57 2.56 80.1 0 1 268.31 318.69
  L 274.75 336.48
  A 0.59 0.59 0.0 0 0 275.86 336.48
  L 282.22 318.28
  A 2.04 2.04 0.0 0 1 284.14 316.92
  L 290.64 316.92
  A 1.39 1.39 0.0 0 1 292.03 318.31
  L 292.03 357.24
  A 1.08 1.08 0.0 0 1 290.95 358.32
  L 284.33 358.32
  A 1.21 1.21 0.0 0 1 283.12 357.08
  L 283.66 334.65
  Z"
/>
<rect x="-4.50" y="-20.69" transform="translate(301.91,337.66) rotate(-0.1)" width="9.00" height="41.38" rx="1.02"/>
<path d="
  M 323.74 334.93
  Q 323.83 334.93 323.86 334.93
  A 0.23 0.21 -86.2 0 0 324.01 334.78
  L 328.51 318.57
  A 2.12 2.11 -82.3 0 1 330.55 317.01
  L 336.68 317.01
  A 1.10 1.09 -80.3 0 1 337.71 318.47
  L 328.30 345.35
  A 1.58 1.52 -36.8 0 0 328.22 345.84
  L 328.22 357.66
  A 0.58 0.58 0.0 0 1 327.79 358.22
  Q 327.28 358.36 323.67 358.35
  Q 320.07 358.34 319.56 358.20
  A 0.58 0.58 0.0 0 1 319.13 357.64
  L 319.20 345.82
  A 1.58 1.52 37.1 0 0 319.12 345.33
  L 309.85 318.39
  A 1.10 1.09 80.6 0 1 310.89 316.94
  L 317.02 316.97
  A 2.12 2.11 82.6 0 1 319.05 318.54
  L 323.47 334.78
  A 0.23 0.21 86.5 0 0 323.62 334.93
  Q 323.64 334.93 323.74 334.93
  Z"
/>
<path d="
  M 352.79 348.78
  Q 349.93 348.77 349.40 348.77
  A 0.70 0.70 0.0 0 0 348.72 349.33
  L 347.18 357.05
  A 1.56 1.55 5.7 0 1 345.64 358.30
  L 339.40 358.29
  A 0.83 0.83 0.0 0 1 338.59 357.29
  L 346.45 318.02
  A 1.12 1.12 0.0 0 1 347.48 317.12
  Q 349.70 316.99 352.85 316.99
  Q 356.00 317.00 358.22 317.14
  A 1.12 1.12 0.0 0 1 359.24 318.04
  L 366.96 357.34
  A 0.83 0.83 0.0 0 1 366.14 358.33
  L 359.90 358.32
  A 1.56 1.55 -5.5 0 1 358.38 357.07
  L 356.86 349.35
  A 0.70 0.70 0.0 0 0 356.18 348.79
  Q 355.65 348.78 352.79 348.78
  Z
  M 349.94 340.86
  A 0.33 0.33 0.0 0 0 350.26 341.25
  L 355.22 341.24
  A 0.33 0.33 0.0 0 0 355.54 340.85
  L 353.04 326.97
  A 0.33 0.33 0.0 0 0 352.39 326.98
  L 349.94 340.86
  Z"
/>
<path d="
  M 378.16 317.03
  A 1.14 1.14 0.0 0 1 379.30 318.17
  L 379.30 333.23
  A 0.83 0.82 -0.0 0 0 380.13 334.05
  L 386.64 334.05
  A 0.94 0.94 0.0 0 0 387.58 333.11
  L 387.58 319.75
  A 2.74 2.74 0.0 0 1 390.32 317.01
  L 394.70 317.01
  A 1.75 1.74 0.0 0 1 396.45 318.75
  L 396.45 357.20
  A 1.13 1.13 0.0 0 1 395.32 358.33
  L 388.54 358.33
  A 1.02 1.02 0.0 0 1 387.52 357.31
  L 387.52 342.57
  A 0.73 0.73 0.0 0 0 386.79 341.84
  L 379.79 341.84
  A 0.52 0.51 90.0 0 0 379.28 342.36
  L 379.28 357.00
  A 1.34 1.33 -0.0 0 1 377.94 358.33
  L 371.54 358.33
  A 1.16 1.15 90.0 0 1 370.39 357.17
  L 370.39 318.20
  A 1.17 1.17 0.0 0 1 371.56 317.03
  L 378.16 317.03
  Z"
/>
<rect x="-1.02" y="-8.46" transform="translate(72.31,375.11) rotate(-0.2)" width="2.04" height="16.92" rx="0.83"/>
<circle cx="293.22" cy="367.72" r="1.19"/>
<path d="
  M 62.95 379.08
  L 62.95 382.59
  A 0.87 0.87 0.0 0 1 62.08 383.46
  L 61.69 383.46
  A 0.96 0.96 0.0 0 1 60.73 382.50
  L 60.73 368.94
  A 1.21 1.21 0.0 0 1 61.94 367.73
  L 66.20 367.73
  A 2.32 2.31 -5.0 0 1 68.48 369.63
  Q 70.15 379.02 63.89 378.25
  A 0.84 0.83 -86.4 0 0 62.95 379.08
  Z
  M 62.91 370.25
  L 62.93 375.69
  A 0.78 0.78 0.0 0 0 63.72 376.47
  L 64.84 376.46
  A 1.90 1.81 -0.3 0 0 66.73 374.64
  L 66.71 371.26
  A 1.90 1.81 -0.3 0 0 64.80 369.46
  L 63.68 369.47
  A 0.78 0.78 0.0 0 0 62.91 370.25
  Z"
/>
<path d="
  M 233.61 377.77
  A 0.69 0.68 -89.6 0 0 232.93 378.45
  C 232.86 381.98 234.79 382.38 237.73 381.50
  A 0.63 0.63 0.0 0 1 238.54 382.09
  L 238.54 382.39
  A 0.99 0.99 0.0 0 1 237.70 383.37
  Q 234.38 383.86 232.80 383.12
  A 3.08 3.06 -78.1 0 1 231.04 380.41
  Q 230.96 375.65 230.98 373.74
  Q 231.04 369.14 237.11 370.53
  A 2.04 2.04 0.0 0 1 238.70 372.52
  L 238.70 376.66
  A 1.12 1.12 0.0 0 1 237.58 377.77
  L 233.61 377.77
  Z
  M 233.52 376.11
  L 236.38 376.07
  A 0.54 0.54 0.0 0 0 236.91 375.52
  L 236.89 373.82
  A 2.02 1.76 89.1 0 0 235.10 371.83
  L 234.68 371.83
  A 2.02 1.76 89.1 0 0 232.95 373.88
  L 232.98 375.58
  A 0.54 0.54 0.0 0 0 233.52 376.11
  Z"
/>
<path d="
  M 248.08 377.77
  A 0.69 0.68 -89.2 0 0 247.39 378.44
  C 247.30 381.98 249.22 382.39 252.18 381.52
  A 0.63 0.63 0.0 0 1 252.98 382.12
  L 252.98 382.42
  A 0.99 0.99 0.0 0 1 252.13 383.40
  Q 248.80 383.86 247.23 383.11
  A 3.08 3.06 -77.7 0 1 245.49 380.38
  Q 245.44 375.62 245.48 373.71
  Q 245.57 369.11 251.63 370.54
  A 2.04 2.04 0.0 0 1 253.21 372.54
  L 253.18 376.68
  A 1.12 1.12 0.0 0 1 252.05 377.79
  L 248.08 377.77
  Z
  M 248.18 376.15
  L 250.62 376.09
  A 0.70 0.70 0.0 0 0 251.30 375.37
  L 251.26 373.62
  A 1.85 1.68 88.6 0 0 249.54 371.81
  L 249.06 371.83
  A 1.85 1.68 88.6 0 0 247.42 373.72
  L 247.47 375.47
  A 0.70 0.70 0.0 0 0 248.18 376.15
  Z"
/>
<path d="
  M 258.69 374.42
  Q 258.95 374.46 260.20 371.08
  A 1.43 1.42 10.9 0 1 261.59 370.16
  L 261.73 370.17
  A 0.70 0.70 0.0 0 1 262.35 371.14
  Q 261.14 373.97 260.08 376.66
  Q 260.03 376.77 260.03 376.89
  Q 260.03 377.01 260.08 377.12
  Q 261.15 379.81 262.37 382.64
  A 0.70 0.70 0.0 0 1 261.75 383.61
  L 261.61 383.62
  A 1.43 1.42 -11.1 0 1 260.22 382.70
  Q 258.96 379.33 258.70 379.37
  Q 258.44 379.33 257.18 382.70
  A 1.43 1.42 10.9 0 1 255.80 383.63
  L 255.66 383.62
  A 0.70 0.70 0.0 0 1 255.04 382.65
  Q 256.25 379.82 257.31 377.13
  Q 257.35 377.02 257.35 376.89
  Q 257.35 376.77 257.31 376.66
  Q 256.24 373.97 255.02 371.15
  A 0.70 0.70 0.0 0 1 255.64 370.18
  L 255.78 370.17
  A 1.43 1.42 -11.1 0 1 257.16 371.09
  Q 258.43 374.46 258.69 374.42
  Z"
/>
<path d="
  M 266.69 384.00
  Q 266.54 384.74 266.72 385.99
  A 0.92 0.91 86.1 0 1 265.82 387.03
  L 265.53 387.03
  A 0.92 0.92 0.0 0 1 264.61 386.11
  L 264.61 371.55
  A 1.09 1.09 0.0 0 1 265.70 370.46
  L 269.97 370.46
  A 2.21 2.20 -3.5 0 1 272.16 372.39
  Q 272.61 375.94 272.34 380.14
  Q 272.08 384.35 267.60 383.41
  A 0.77 0.77 0.0 0 0 266.69 384.00
  Z
  M 270.3499 373.4159
  A 1.27 1.27 0.0 0 0 269.0910 372.1349
  L 268.0110 372.1255
  A 1.27 1.27 0.0 0 0 266.7300 373.3843
  L 266.6701 380.2441
  A 1.27 1.27 0.0 0 0 267.9290 381.5251
  L 269.0090 381.5345
  A 1.27 1.27 0.0 0 0 270.2900 380.2757
  L 270.3499 373.4159
  Z"
/>
<path d="
  M 285.15 370.70
  A 0.47 0.47 0.0 0 1 285.82 370.28
  Q 287.70 371.20 289.48 370.38
  A 0.61 0.61 0.0 0 1 290.35 370.93
  L 290.35 371.40
  A 0.87 0.87 0.0 0 1 289.65 372.25
  L 287.95 372.59
  A 0.87 0.87 0.0 0 0 287.25 373.44
  L 287.25 382.82
  A 0.88 0.88 0.0 0 1 286.37 383.70
  L 286.05 383.70
  A 0.90 0.90 0.0 0 1 285.15 382.80
  L 285.15 370.70
  Z"
/>
<rect x="-1.08" y="-6.65" transform="translate(293.15,376.97) rotate(-0.2)" width="2.16" height="13.30" rx="0.90"/>
<path d="
  M 299.51 377.75
  A 0.69 0.68 -89.0 0 0 298.82 378.42
  C 298.72 381.95 300.64 382.36 303.59 381.51
  A 0.63 0.63 0.0 0 1 304.39 382.12
  L 304.38 382.41
  A 0.99 0.99 0.0 0 1 303.54 383.38
  Q 300.21 383.84 298.64 383.08
  A 3.07 3.06 -77.4 0 1 296.92 380.35
  Q 296.89 375.59 296.93 373.69
  Q 297.04 369.09 303.09 370.54
  A 2.03 2.03 0.0 0 1 304.65 372.55
  L 304.61 376.68
  A 1.12 1.12 0.0 0 1 303.48 377.79
  L 299.51 377.75
  Z
  M 299.64 376.14
  L 302.10 376.08
  A 0.70 0.70 0.0 0 0 302.78 375.36
  L 302.75 373.74
  A 1.96 1.66 88.6 0 0 301.04 371.82
  L 300.50 371.84
  A 1.96 1.66 88.6 0 0 298.89 373.84
  L 298.93 375.46
  A 0.70 0.70 0.0 0 0 299.64 376.14
  Z"
/>
<path d="
  M 307.24 371.26
  A 0.79 0.78 90.0 0 1 308.02 370.46
  L 313.25 370.46
  A 1.66 1.65 90.0 0 1 314.90 372.12
  L 314.90 382.75
  A 0.82 0.82 0.0 0 1 314.08 383.58
  L 313.72 383.58
  A 0.84 0.84 0.0 0 1 312.87 382.73
  L 312.87 373.48
  A 1.51 1.50 -0.0 0 0 311.36 371.98
  L 310.73 371.98
  A 1.47 1.47 0.0 0 0 309.26 373.45
  L 309.26 382.79
  A 0.82 0.81 90.0 0 1 308.45 383.61
  L 308.15 383.61
  A 0.90 0.90 0.0 0 1 307.24 382.71
  L 307.24 371.26
  Z"
/>
<path d="
  M 319.64 376.91
  Q 319.65 380.46 319.66 380.50
  A 1.51 1.49 6.1 0 0 320.42 381.42
  Q 321.48 381.98 323.39 381.42
  A 0.75 0.75 0.0 0 1 324.35 382.14
  L 324.35 382.46
  A 0.97 0.97 0.0 0 1 323.47 383.43
  Q 320.91 383.67 319.60 383.32
  A 2.81 2.81 0.0 0 1 317.52 380.90
  Q 317.42 380.01 317.41 376.92
  Q 317.40 373.83 317.49 372.95
  A 2.81 2.81 0.0 0 1 319.55 370.51
  Q 320.86 370.15 323.42 370.37
  A 0.97 0.97 0.0 0 1 324.31 371.33
  L 324.31 371.65
  A 0.75 0.75 0.0 0 1 323.36 372.38
  Q 321.44 371.83 320.39 372.40
  A 1.51 1.49 -6.5 0 0 319.64 373.33
  Q 319.63 373.37 319.64 376.91
  Z"
/>
<path d="
  M 328.88 377.77
  A 0.69 0.68 -89.8 0 0 328.19 378.45
  C 328.14 382.01 330.08 382.41 333.04 381.50
  A 0.63 0.63 0.0 0 1 333.86 382.10
  L 333.86 382.40
  A 1.00 1.00 0.0 0 1 333.02 383.39
  Q 329.67 383.89 328.08 383.16
  A 3.10 3.08 -78.3 0 1 326.30 380.43
  Q 326.21 375.64 326.22 373.72
  Q 326.26 369.08 332.38 370.46
  A 2.05 2.05 0.0 0 1 333.98 372.45
  L 334.00 376.62
  A 1.13 1.13 0.0 0 1 332.88 377.75
  L 328.88 377.77
  Z
  M 328.91 376.08
  L 331.43 376.08
  A 0.71 0.71 0.0 0 0 332.14 375.37
  L 332.14 374.04
  A 2.14 1.83 -89.9 0 0 330.31 371.90
  L 330.03 371.90
  A 2.14 1.83 -89.9 0 0 328.20 374.04
  L 328.20 375.37
  A 0.71 0.71 0.0 0 0 328.91 376.08
  Z"
/>
<circle cx="337.17" cy="382.49" r="1.34"/>
</g>
<path fill="#e89b1b" d="
  M 140.42 218.71
  A 1.44 1.44 0.0 0 1 141.37 216.35
  Q 143.98 216.10 157.25 214.73
  Q 180.49 212.34 203.43 204.09
  Q 219.29 198.39 221.35 197.83
  Q 244.15 191.72 268.78 199.02
  Q 284.69 203.73 296.30 211.28
  C 301.71 214.80 307.71 219.60 313.97 223.86
  Q 331.84 235.99 357.62 252.88
  C 362.01 255.75 360.92 258.61 358.67 262.76
  Q 349.97 278.80 340.46 297.17
  C 339.39 299.24 337.31 300.86 335.04 299.96
  Q 333.75 299.44 331.58 296.54
  Q 327.19 290.66 320.92 285.07
  C 313.22 278.21 302.29 275.67 291.99 275.66
  Q 271.99 275.64 251.66 281.17
  Q 238.12 284.85 213.61 292.14
  Q 204.69 294.80 194.16 296.05
  C 180.05 297.73 163.83 294.88 150.53 290.19
  C 122.50 280.31 96.97 268.59 69.16 255.06
  C 64.14 252.61 45.75 244.23 51.39 236.00
  Q 52.39 234.53 55.90 233.66
  C 67.12 230.86 77.06 233.20 88.10 237.22
  Q 113.46 246.46 131.23 251.48
  C 155.01 258.20 184.86 262.84 206.21 246.50
  C 209.72 243.81 218.19 233.99 209.21 232.21
  C 200.54 230.50 190.91 233.74 182.22 234.23
  Q 161.85 235.37 144.50 222.51
  Q 142.15 220.77 140.42 218.71
  Z"
/>
<g fill="#02140f">
<ellipse cx="0.00" cy="0.00" transform="translate(163.40,367.68) rotate(-43.1)" rx="1.52" ry="0.70"/>
<ellipse cx="0.00" cy="0.00" transform="translate(170.20,367.64) rotate(-168.9)" rx="1.38" ry="1.17"/>
<ellipse cx="0.00" cy="0.00" transform="translate(121.42,369.27) rotate(-72.9)" rx="2.67" ry="0.90"/>
<ellipse cx="0.00" cy="0.00" transform="translate(279.17,367.93) rotate(-39.7)" rx="0.98" ry="0.73"/>
<path d="
  M 217.73 382.48
  A 0.79 0.78 -89.9 0 1 216.94 383.27
  L 211.73 383.26
  A 1.65 1.64 -89.9 0 1 210.09 381.60
  L 210.10 370.99
  A 0.82 0.82 0.0 0 1 210.92 370.17
  L 211.28 370.17
  A 0.84 0.84 0.0 0 1 212.12 371.02
  L 212.11 380.25
  A 1.50 1.49 0.1 0 0 213.62 381.75
  L 214.25 381.75
  A 1.46 1.46 0.0 0 0 215.71 380.29
  L 215.72 370.97
  A 0.82 0.81 -89.9 0 1 216.54 370.15
  L 216.84 370.15
  A 0.90 0.90 0.0 0 1 217.74 371.05
  L 217.73 382.48
  Z"
/>
<path d="
  M 276.82 378.46
  C 276.75 382.00 278.68 382.40 281.63 381.51
  A 0.63 0.63 0.0 0 1 282.44 382.11
  L 282.44 382.41
  A 0.99 0.99 0.0 0 1 281.60 383.39
  Q 278.27 383.88 276.69 383.14
  A 3.08 3.07 -78.1 0 1 274.93 380.42
  Q 274.85 375.65 274.87 373.74
  Q 274.93 369.13 281.01 370.52
  A 2.04 2.04 0.0 0 1 282.60 372.51
  L 282.60 376.66
  A 1.12 1.12 0.0 0 1 281.48 377.78
  L 277.50 377.78
  A 0.69 0.68 -89.6 0 0 276.82 378.46
  Z
  M 277.65 376.22
  L 279.87 376.18
  A 0.79 0.79 0.0 0 0 280.64 375.38
  L 280.62 373.84
  A 1.95 1.67 89.0 0 0 278.91 371.92
  L 278.45 371.92
  A 1.95 1.67 89.0 0 0 276.82 373.90
  L 276.84 375.44
  A 0.79 0.79 0.0 0 0 277.65 376.22
  Z"
/>
<path d="
  M 83.82 382.47
  A 0.79 0.78 -89.9 0 1 83.05 383.26
  L 77.87 383.25
  A 1.64 1.63 -89.9 0 1 76.24 381.60
  L 76.25 371.07
  A 0.82 0.82 0.0 0 1 77.07 370.25
  L 77.43 370.25
  A 0.84 0.84 0.0 0 1 78.26 371.09
  L 78.25 380.26
  A 1.49 1.48 0.1 0 0 79.74 381.75
  L 80.37 381.75
  A 1.45 1.45 0.0 0 0 81.83 380.30
  L 81.84 371.05
  A 0.82 0.81 -89.9 0 1 82.65 370.23
  L 82.95 370.23
  A 0.90 0.90 0.0 0 1 83.84 371.13
  L 83.82 382.47
  Z"
/>
<path d="
  M 117.92 382.48
  A 0.79 0.78 89.5 0 1 117.15 383.27
  L 111.96 383.32
  A 1.64 1.63 89.5 0 1 110.31 381.69
  L 110.22 371.14
  A 0.82 0.82 0.0 0 1 111.03 370.32
  L 111.39 370.32
  A 0.84 0.84 0.0 0 1 112.23 371.15
  L 112.32 380.33
  A 1.50 1.49 -0.5 0 0 113.82 381.80
  L 114.45 381.79
  A 1.46 1.46 0.0 0 0 115.89 380.32
  L 115.81 371.06
  A 0.82 0.81 89.5 0 1 116.61 370.24
  L 116.91 370.24
  A 0.90 0.90 0.0 0 1 117.81 371.12
  L 117.92 382.48
  Z"
/>
<path d="
  M 132.58 382.49
  A 0.79 0.78 89.9 0 1 131.80 383.28
  L 126.58 383.28
  A 1.65 1.64 89.9 0 1 124.94 381.63
  L 124.93 371.02
  A 0.82 0.82 0.0 0 1 125.75 370.20
  L 126.11 370.20
  A 0.84 0.84 0.0 0 1 126.95 371.04
  L 126.96 380.28
  A 1.50 1.49 -0.1 0 0 128.47 381.77
  L 129.10 381.77
  A 1.46 1.46 0.0 0 0 130.56 380.30
  L 130.55 370.99
  A 0.82 0.81 89.9 0 1 131.36 370.16
  L 131.66 370.16
  A 0.90 0.90 0.0 0 1 132.57 371.06
  L 132.58 382.49
  Z"
/>
<path d="
  M 161.50 377.79
  A 0.69 0.68 -89.7 0 0 160.83 378.47
  C 160.76 381.98 162.68 382.38 165.61 381.49
  A 0.63 0.62 -8.4 0 1 166.42 382.08
  L 166.42 382.38
  A 0.98 0.98 0.0 0 1 165.58 383.35
  Q 162.28 383.85 160.71 383.11
  A 3.06 3.05 -78.2 0 1 158.95 380.42
  Q 158.87 375.68 158.88 373.78
  Q 158.94 369.20 164.98 370.57
  A 2.03 2.03 0.0 0 1 166.56 372.55
  L 166.57 376.67
  A 1.11 1.11 0.0 0 1 165.46 377.78
  L 161.50 377.79
  Z
  M 161.38 376.22
  L 164.30 376.16
  A 0.56 0.56 0.0 0 0 164.84 375.59
  L 164.80 373.73
  A 1.98 1.87 88.8 0 0 162.89 371.79
  L 162.59 371.79
  A 1.98 1.87 88.8 0 0 160.77 373.81
  L 160.80 375.67
  A 0.56 0.56 0.0 0 0 161.38 376.22
  Z"
/>
<path d="
  M 169.25 371.20
  A 0.90 0.90 0.0 0 1 170.15 370.29
  L 170.55 370.29
  A 0.74 0.73 0.8 0 1 171.29 371.04
  Q 171.14 377.71 171.22 382.53
  C 171.26 384.73 170.63 386.12 168.61 386.86
  A 1.04 0.79 -0.5 0 1 167.21 385.82
  C 167.85 384.78 169.23 384.85 169.30 383.27
  Q 169.39 381.17 169.25 371.20
  Z"
/>
<path d="
  M 181.7016 380.4860
  A 2.94 2.94 0.0 0 1 178.7874 383.4515
  L 176.9075 383.4680
  A 2.94 2.94 0.0 0 1 173.9419 380.5537
  L 173.8784 373.2740
  A 2.94 2.94 0.0 0 1 176.7926 370.3085
  L 178.6725 370.2920
  A 2.94 2.94 0.0 0 1 181.6381 373.2063
  L 181.7016 380.4860
  Z
  M 179.7576 373.5602
  A 1.73 1.73 0.0 0 0 178.0366 371.8212
  L 177.6167 371.8190
  A 1.73 1.73 0.0 0 0 175.8776 373.5399
  L 175.8424 380.2598
  A 1.73 1.73 0.0 0 0 177.5634 381.9988
  L 177.9833 382.0010
  A 1.73 1.73 0.0 0 0 179.7224 380.2801
  L 179.7576 373.5602
  Z"
/>
<path d="
  M 192.13 382.54
  A 0.79 0.78 -90.0 0 1 191.35 383.33
  L 186.15 383.33
  A 1.65 1.64 -90.0 0 1 184.51 381.68
  L 184.51 371.10
  A 0.82 0.82 0.0 0 1 185.33 370.28
  L 185.69 370.28
  A 0.84 0.84 0.0 0 1 186.53 371.12
  L 186.53 380.33
  A 1.50 1.49 -0.0 0 0 188.03 381.82
  L 188.66 381.82
  A 1.46 1.46 0.0 0 0 190.12 380.36
  L 190.12 371.07
  A 0.82 0.81 90.0 0 1 190.93 370.25
  L 191.23 370.25
  A 0.90 0.90 0.0 0 1 192.13 371.15
  L 192.13 382.54
  Z"
/>
<path d="
  M 195.09 370.72
  A 0.46 0.46 0.0 0 1 195.75 370.30
  Q 197.60 371.20 199.35 370.38
  A 0.60 0.60 0.0 0 1 200.21 370.92
  L 200.22 371.38
  A 0.86 0.85 -6.0 0 1 199.53 372.22
  L 197.86 372.56
  A 0.86 0.85 -6.0 0 0 197.17 373.41
  L 197.23 382.65
  A 0.87 0.87 0.0 0 1 196.37 383.52
  L 196.05 383.52
  A 0.89 0.89 0.0 0 1 195.16 382.64
  L 195.09 370.72
  Z"
/>
<path d="
  M 220.75 371.33
  A 0.79 0.78 -90.0 0 1 221.53 370.54
  L 226.72 370.55
  A 1.65 1.64 -90.0 0 1 228.36 372.19
  L 228.36 382.75
  A 0.82 0.82 0.0 0 1 227.54 383.57
  L 227.18 383.57
  A 0.84 0.84 0.0 0 1 226.34 382.73
  L 226.34 373.54
  A 1.50 1.49 0.0 0 0 224.84 372.05
  L 224.22 372.05
  A 1.46 1.46 0.0 0 0 222.76 373.51
  L 222.76 382.78
  A 0.82 0.81 -90.0 0 1 221.95 383.60
  L 221.65 383.60
  A 0.90 0.90 0.0 0 1 220.75 382.70
  L 220.75 371.33
  Z"
/>
<path d="
  M 86.72 381.52
  Q 89.01 382.07 90.41 381.59
  A 1.65 1.65 0.0 0 0 90.69 378.61
  L 87.27 376.64
  A 1.06 1.06 0.0 0 1 86.89 376.26
  Q 85.46 373.88 86.69 371.51
  A 1.36 1.34 -83.3 0 1 87.56 370.81
  Q 90.00 370.18 92.30 370.53
  A 0.84 0.84 0.0 0 1 93.00 371.46
  L 92.98 371.59
  A 0.66 0.66 0.0 0 1 92.22 372.16
  Q 87.66 371.45 88.13 374.37
  A 1.35 1.34 -79.9 0 0 88.80 375.34
  L 92.16 377.28
  A 1.61 1.61 0.0 0 1 92.77 377.89
  C 93.98 379.92 93.47 382.85 90.74 383.30
  Q 88.49 383.68 86.80 383.32
  A 0.92 0.91 -84.2 0 1 86.07 382.42
  L 86.07 382.03
  A 0.53 0.52 -83.1 0 1 86.72 381.52
  Z"
/>
<path d="
  M 104.40 383.22
  Q 99.98 384.13 99.74 379.98
  Q 99.49 375.85 99.94 372.35
  A 2.17 2.17 0.0 0 1 102.11 370.46
  L 106.31 370.47
  A 1.07 1.07 0.0 0 1 107.38 371.55
  L 107.33 385.89
  A 0.91 0.91 0.0 0 1 106.42 386.79
  L 106.13 386.79
  A 0.90 0.90 0.0 0 1 105.25 385.76
  Q 105.43 384.53 105.29 383.80
  A 0.75 0.75 0.0 0 0 104.40 383.22
  Z
  M 105.27 380.89
  L 105.31 372.97
  A 0.76 0.76 0.0 0 0 104.55 372.21
  L 103.35 372.20
  A 1.70 1.53 0.3 0 0 101.65 373.72
  L 101.61 380.10
  A 1.70 1.53 0.3 0 0 103.31 381.64
  L 104.51 381.65
  A 0.76 0.76 0.0 0 0 105.27 380.89
  Z"
/>
<path d="
  M 135.58 371.30
  A 0.79 0.78 -89.9 0 1 136.36 370.51
  L 141.57 370.52
  A 1.65 1.64 -89.9 0 1 143.21 372.17
  L 143.20 382.77
  A 0.82 0.82 0.0 0 1 142.38 383.59
  L 142.02 383.59
  A 0.84 0.84 0.0 0 1 141.18 382.75
  L 141.19 373.52
  A 1.50 1.49 0.1 0 0 139.69 372.03
  L 139.06 372.03
  A 1.46 1.46 0.0 0 0 137.59 373.49
  L 137.58 382.80
  A 0.82 0.81 -89.9 0 1 136.77 383.62
  L 136.47 383.62
  A 0.90 0.90 0.0 0 1 135.57 382.71
  L 135.58 371.30
  Z"
/>
<path d="
  M 149.57 382.37
  L 149.57 381.98
  A 0.52 0.52 0.0 0 1 150.22 381.48
  Q 152.50 382.04 153.90 381.57
  A 1.64 1.64 0.0 0 0 154.20 378.61
  L 150.81 376.62
  A 1.05 1.05 0.0 0 1 150.43 376.24
  Q 149.02 373.86 150.26 371.50
  A 1.36 1.34 -82.9 0 1 151.13 370.81
  Q 153.57 370.20 155.86 370.56
  A 0.84 0.83 8.6 0 1 156.55 371.50
  L 156.53 371.62
  A 0.66 0.66 0.0 0 1 155.77 372.19
  Q 151.23 371.45 151.68 374.36
  A 1.35 1.34 -79.5 0 0 152.34 375.33
  L 155.68 377.29
  A 1.60 1.60 0.0 0 1 156.28 377.90
  C 157.47 379.93 156.94 382.85 154.22 383.28
  Q 151.97 383.64 150.29 383.27
  A 0.92 0.91 -83.8 0 1 149.57 382.37
  Z"
/>
<path d="
  M 203.57 381.53
  A 0.17 0.17 0.0 0 1 203.68 381.74
  L 203.62 381.93
  A 4.60 0.89 -72.7 0 1 201.41 386.05
  L 201.18 385.98
  A 4.60 0.89 -72.7 0 1 201.70 381.33
  L 201.75 381.14
  A 0.17 0.17 0.0 0 1 201.97 381.03
  L 203.57 381.53
  Z"
/>
</g>
</svg>
